<svg xmlns="http://www.w3.org/2000/svg" width="91" height="92" fill="none"><g fill="#00B922" clip-path="url(#a)"><path d="M45.38 91.26C20.36 91.26 0 70.9 0 45.88 0 20.86 20.36.5 45.38.5 70.4.5 90.76 20.86 90.76 45.88c0 25.02-20.36 45.38-45.38 45.38Zm0-87.72c-23.35 0-42.34 18.99-42.34 42.34 0 23.35 18.99 42.34 42.34 42.34 23.35 0 42.34-18.99 42.34-42.34 0-23.35-18.99-42.34-42.34-42.34Z"/><path d="M14.79 77.982c-.39 0-.78-.15-1.07-.44-.59-.59-.59-1.55 0-2.15l7.59-7.59c.59-.59 1.55-.59 2.15 0 .59.59.59 1.55 0 2.15l-7.59 7.59c-.3.3-.68.44-1.07.44h-.01ZM68.513 24.122c-.39 0-.78-.15-1.07-.44-.59-.59-.59-1.55 0-2.15l7.59-7.59c.59-.59 1.55-.59 2.15 0 .59.59.59 1.55 0 2.15l-7.59 7.59c-.3.3-.68.44-1.07.44h-.01Z"/><path fill-rule="evenodd" d="M31.5 36v37.5A2.5 2.5 0 0 0 34 76h23a2.5 2.5 0 0 0 2.5-2.5V36h-28ZM30 32.5a2 2 0 0 0-2 2v39a6 6 0 0 0 6 6h23a6 6 0 0 0 6-6v-39a2 2 0 0 0-2-2H30ZM47.545 16h-4.09c-5.937 0-10.863 4.327-11.796 10h27.682c-.933-5.673-5.859-10-11.796-10Zm-4.09-3.5C34.919 12.5 28 19.42 28 27.954c0 .854.692 1.546 1.546 1.546h31.909c.853 0 1.545-.692 1.545-1.546C63 19.42 56.08 12.5 47.545 12.5h-4.09Z" clip-rule="evenodd"/><circle cx="45" cy="16.5" r="2"/><circle cx="39" cy="21.5" r="2"/><circle cx="50" cy="21.5" r="2"/></g><defs><clipPath id="a"><path fill="#fff" d="M0 .5h90.76v90.76H0z"/></clipPath></defs></svg>