<svg xmlns="http://www.w3.org/2000/svg" width="93" height="75" fill="none"><g fill="#00B922" clip-path="url(#a)"><path d="M46.3 74.14c-7.73 0-15.47-.98-22.98-2.93-.52-.14-.93-.54-1.08-1.06l-.27-.97c-.83-2.98-2.91-5.96-5.71-8.16C6.99 53.69.51 40.47.5 28.86v-1.32a1.52 1.52 0 1 1 3.04 0v1.32c.01 10.74 6.02 22.99 14.6 29.78 3.34 2.63 5.74 6.08 6.75 9.72l.03.13c14 3.49 28.75 3.49 42.75 0l.03-.12c1.01-3.65 3.41-7.1 6.75-9.73 8.58-6.79 14.59-19.03 14.6-29.77v-1.31a1.52 1.52 0 1 1 3.04 0v1.32c-.01 11.61-6.49 24.83-15.76 32.16-2.8 2.2-4.88 5.17-5.71 8.16l-.27.98c-.15.52-.56.92-1.08 1.06a91.595 91.595 0 0 1-22.98 2.93l.01-.03Z"/><path d="M46.261 67.45c-5.51 0-11.03-.5-16.47-1.49-.82-.15-1.37-.94-1.22-1.77.15-.82.94-1.37 1.77-1.22 14.08 2.58 28.72 1.69 42.37-2.59.8-.25 1.65.19 1.9.99s-.19 1.65-.99 1.9a91.657 91.657 0 0 1-27.36 4.17v.01ZM46.3 39.47c-11.94 0-23.18-1.1-31.66-3.09C5.26 34.17.5 31.2.5 27.54c0-3.24 3.77-5.96 11.19-8.08.81-.23 1.65.24 1.88 1.04.23.81-.24 1.65-1.04 1.88-6.64 1.89-8.99 3.96-8.99 5.16 0 3.63 16.66 8.89 42.76 8.89 11.71 0 22.71-1.07 30.96-3.01 9.31-2.19 11.8-4.73 11.8-5.88 0-1.75-5.04-5.12-18.94-7.24-.83-.13-1.4-.9-1.27-1.73.13-.83.9-1.4 1.73-1.27 9.82 1.5 21.52 4.49 21.52 10.24 0 3.66-4.76 6.63-14.14 8.84-8.47 1.99-19.72 3.09-31.66 3.09Z"/><path d="M40.331 33.43h-.12c-.84-.07-1.46-.8-1.39-1.63.84-10.62-3.01-18.67-11.44-23.92-4.89-3.05-10-4.26-12.2-4.66-7.42 18.35 6.58 25.96 7.19 26.29a1.521 1.521 0 0 1-1.4 2.7c-6.16-3.23-15.79-13.88-8.11-31.3.27-.61.91-.97 1.56-.9.3.03 29.66 3.71 27.43 32.02-.06.79-.73 1.4-1.51 1.4h-.01Z"/><path d="M31.122 33.43c-.7 0-1.33-.49-1.48-1.2-1.97-9.04-7.53-15.98-7.59-16.05a1.51 1.51 0 0 1 .22-2.13c.65-.53 1.61-.43 2.14.22.25.3 6.08 7.58 8.2 17.32.18.82-.34 1.63-1.16 1.81-.11.02-.22.04-.32.04l-.01-.01Z"/><path d="M29.29 27.49c-.23 0-.46-.05-.67-.16a1.505 1.505 0 0 1-.68-2.03l2.86-5.75c.37-.75 1.28-1.06 2.04-.68.75.37 1.06 1.28.68 2.03l-2.86 5.75c-.27.53-.8.84-1.36.84h-.01ZM62.8 32.95c-.23 0-.47-.05-.69-.17-.75-.38-1.04-1.3-.65-2.04.27-.53.51-1.09.7-1.66 1.04-3.06.83-6.35-.6-9.25-1.43-2.9-3.91-5.07-6.97-6.11-3.92-1.33-8.2-.59-11.44 1.99-.66.52-1.61.41-2.13-.24a1.52 1.52 0 0 1 .24-2.13c4.06-3.22 9.4-4.15 14.31-2.49 3.83 1.3 6.93 4.02 8.71 7.65 1.79 3.63 2.06 7.74.76 11.57-.24.71-.54 1.41-.88 2.07-.27.52-.8.82-1.35.82l-.01-.01Z"/><path d="M55.07 13.79c-.45 0-.89-.2-1.18-.57l-3.67-4.56c-.53-.65-.42-1.61.23-2.13.65-.53 1.61-.42 2.13.23l3.08 3.83 4.99-1.11c.81-.18 1.63.33 1.81 1.15.18.82-.33 1.63-1.15 1.81l-5.9 1.31c-.11.02-.22.04-.33.04h-.01Z"/><path d="M55.072 13.79c-.16 0-.33-.03-.49-.08a1.524 1.524 0 0 1-.95-1.93l1.66-4.89c.27-.79 1.13-1.22 1.92-.95s1.22 1.13.95 1.93l-1.66 4.89c-.22.63-.8 1.03-1.44 1.03h.01Z"/></g><defs><clipPath id="a"><path fill="#fff" d="M.5 0h91.6v74.14H.5z"/></clipPath></defs></svg>