<svg xmlns="http://www.w3.org/2000/svg" width="90" height="86" fill="none"><g fill="#00B922" clip-path="url(#a)"><path d="M53.57 85.08H36.7c-.84 0-1.52-.68-1.52-1.52V19.14c0-.26.07-.51.19-.74L43.8 3.22c.27-.48.77-.78 1.33-.78s1.06.3 1.33.78L54.9 18.4c.13.23.19.48.19.74v64.42c0 .84-.68 1.52-1.52 1.52Zm-15.35-3.04h13.83V19.53L45.13 7.08l-6.92 12.45v62.51h.01ZM29.74 85.08H2.02c-.84 0-1.52-.68-1.52-1.52V19.14c0-.26.07-.51.19-.74L9.13 3.22c.27-.48.77-.78 1.33-.78h9.45a1.52 1.52 0 1 1 0 3.04h-8.55L3.55 19.53v62.51h26.2a1.52 1.52 0 1 1 0 3.04h-.01Z"/><path d="M36.7 20.66H2.02a1.52 1.52 0 1 1 0-3.04H36.7a1.52 1.52 0 1 1 0 3.04ZM22.12 12.73c-.51 0-1.02-.04-1.5-.14-1.9-.36-3.35-1.43-3.98-2.94-.65-1.57-.37-3.45.79-5.16C19.54 1.37 23.99-.54 27.57.14c1.9.36 3.35 1.43 3.98 2.94.65 1.57.37 3.45-.79 5.16-1.82 2.7-5.39 4.49-8.64 4.49Zm3.94-9.7c-2.24 0-4.86 1.31-6.11 3.15-.57.85-.75 1.68-.5 2.29.23.56.85.96 1.74 1.13 2.4.45 5.63-.95 7.06-3.07.57-.85.76-1.68.5-2.29-.23-.56-.85-.96-1.74-1.13-.31-.06-.62-.09-.95-.09v.01ZM45.128 5.48h-9.12a1.52 1.52 0 1 1 0-3.04h9.12a1.52 1.52 0 1 1 0 3.04ZM85.83 85.08H64.74c-.82 0-1.49-.65-1.52-1.46l-1.75-46.74c-.02-.41.14-.81.42-1.11.29-.3.68-.47 1.09-.47h24.6c.41 0 .81.17 1.09.47.29.3.44.7.42 1.11l-1.75 46.74c-.03.82-.7 1.46-1.52 1.46h.01ZM66.2 82.04h18.17l1.64-43.7H64.56l1.64 43.7Z"/><path d="M81.209 52.96h-16.47a1.52 1.52 0 1 1 0-3.04h16.47a1.52 1.52 0 1 1 0 3.04Z"/></g><defs><clipPath id="a"><path fill="#fff" d="M.5 0h88.6v85.08H.5z"/></clipPath></defs></svg>