<svg xmlns="http://www.w3.org/2000/svg" width="117" height="85" fill="none"><g fill="#333" clip-path="url(#a)"><path d="M103.461 84.34h-.03c-.84-.02-1.5-.71-1.49-1.55.21-11.05 3.24-17.23 6.18-23.21 3.45-7.02 6.71-13.66 4.91-28.19-3.27-26.42-29.81-28.15-30.08-28.16-.04 0-.07 0-.11-.01-.08-.01-8.07-.99-16.54 1.53-11.12 3.3-17.82 10.81-19.92 22.32-.28 1.22-.59 4.51 1.18 6 .42.35.94 1 1.01 2.08.23 3.37-4.55 9.43-8.61 13.92.09.28.57 1.12 2.52 2.02 4.1 1.89 3.78 7.42 3.49 9.59 1.22 1.24 3.57 4.2 2.71 8.02-.53 2.36-.98 5 .4 6.57 1.24 1.42 4.06 1.97 8.14 1.59.13 0 9.59-.72 18.95-4.58.77-.32 1.66.05 1.98.82.32.77-.05 1.66-.82 1.98-9.83 4.05-19.45 4.77-19.86 4.8-5.2.48-8.7-.38-10.66-2.62-2.51-2.86-1.58-7.01-1.08-9.23.7-3.12-2.3-5.6-2.33-5.62a1.53 1.53 0 0 1-.53-1.5c.01-.06 1.14-5.78-1.64-7.07-2.19-1.01-3.58-2.29-4.13-3.78-.37-1.03-.13-2.19.63-3.03 5.8-6.42 8.05-10.66 7.83-11.7-3.5-3.02-2.19-8.66-2.13-8.9C48.83-3.3 81.63.02 83.18.19c1.48.11 29.37 2.53 32.87 30.82 1.91 15.43-1.71 22.79-5.2 29.9-2.79 5.68-5.68 11.56-5.87 21.93a1.52 1.52 0 0 1-1.52 1.49v.01Z"/><path d="M66.041 84.34c-.76 0-1.42-.57-1.51-1.34l-.62-5.32c-.1-.83.5-1.59 1.33-1.68.84-.1 1.59.5 1.68 1.33l.62 5.32c.1.83-.5 1.59-1.33 1.68-.06 0-.12.01-.18.01h.01ZM27.85 68.53c-.39 0-.78-.15-1.07-.44-5.25-5.25-5.25-13.79 0-19.04.59-.59 1.55-.59 2.15 0 .59.59.59 1.55 0 2.15-4.07 4.07-4.07 10.69 0 14.75.59.59.59 1.55 0 2.15-.3.3-.68.44-1.07.44l-.01-.01Z"/><path d="M20.22 76.16c-.39 0-.78-.15-1.07-.44-4.58-4.58-7.11-10.67-7.11-17.15 0-6.48 2.52-12.57 7.11-17.15.59-.59 1.55-.59 2.15 0 .59.59.59 1.55 0 2.15a21.09 21.09 0 0 0-6.22 15.01c0 5.67 2.21 11 6.22 15.01.59.59.59 1.55 0 2.15-.3.3-.68.44-1.07.44l-.01-.02Z"/><path d="M12.05 84.34c-.39 0-.78-.15-1.07-.44-13.97-13.97-13.97-36.69 0-50.66.59-.59 1.55-.59 2.15 0 .59.59.59 1.55 0 2.15C.34 48.16.34 68.96 13.12 81.74c.59.59.59 1.55 0 2.15-.3.3-.68.44-1.07.44v.01Z"/></g><defs><clipPath id="a"><path fill="#fff" d="M.5 0h116.08v84.34H.5z"/></clipPath></defs></svg>