<svg width="68" height="88" fill="none" xmlns="http://www.w3.org/2000/svg"><g clip-path="url(#a)" fill="#00B922"><path d="M58.31 87.21H29.36c-5.23 0-9.48-4.25-9.48-9.48v-7.7a1.52 1.52 0 1 1 3.04 0v7.7c0 3.55 2.89 6.44 6.44 6.44h28.95c3.55 0 6.44-2.89 6.44-6.44V9.48c0-3.55-2.89-6.44-6.44-6.44H29.36c-3.55 0-6.44 2.89-6.44 6.44v6.35a1.52 1.52 0 1 1-3.04 0V9.48c0-5.23 4.25-9.48 9.48-9.48h28.95c5.23 0 9.48 4.25 9.48 9.48v68.25c0 5.23-4.25 9.48-9.48 9.48z"/><path d="M48.031 8.58h-8.39a1.52 1.52 0 1 1 0-3.04h8.39a1.52 1.52 0 1 1 0 3.04z"/><g clip-path="url(#b)"><path d="M42.09 71.81c-1.02 0-2.04-.12-3.05-.37-3.5-.88-7.12-.88-10.55-.02-3.65.89-7.36.21-10.78-1.96-5-3.17-8.69-9-10.11-15.99-2.45-12.06 2.83-23.64 11.78-25.83 3.83-.94 7.92-.04 11.52 2.53a4.882 4.882 0 0 0 5.67 0c3.59-2.57 7.69-3.47 11.52-2.53 8.95 2.19 14.23 13.78 11.78 25.83-1.42 6.99-5.11 12.82-10.11 15.99-2.46 1.56-5.06 2.35-7.66 2.35h-.01zM22.43 30.3c-.78 0-1.56.09-2.33.28-7.39 1.81-11.66 11.8-9.53 22.28 1.24 6.09 4.52 11.34 8.76 14.03 2.72 1.72 5.61 2.27 8.36 1.6 3.97-1 8.1-1 12.01-.01 2.81.69 5.71.14 8.42-1.58 4.24-2.69 7.52-7.93 8.76-14.03 2.13-10.47-2.14-20.47-9.53-22.28-3-.73-6.12-.03-9.03 2.05a7.9 7.9 0 0 1-9.2 0c-2.16-1.54-4.44-2.33-6.7-2.33l.01-.01z"/><path d="M33.67 34.098c-.75 0-1.4-.55-1.5-1.31-.05-.35-1.06-8.67 6.92-15.84.63-.56 1.58-.51 2.14.11s.51 1.58-.11 2.14c-6.74 6.06-5.97 12.9-5.94 13.18.1.83-.48 1.59-1.31 1.7-.07 0-.13.01-.2.01v.01z"/><path d="M30.139 26.852c-7.44 0-11.24-4.85-11.4-5.05-.5-.65-.39-1.58.25-2.1 4.4-3.59 8.67-5.13 12.66-4.6 4.84.65 7.41 4.16 7.52 4.31.49.68.33 1.63-.35 2.12-.68.49-1.62.33-2.11-.34-.03-.04-1.98-2.63-5.51-3.09-2.75-.35-5.76.63-8.97 2.92 1.36 1.14 3.99 2.78 7.9 2.78a1.52 1.52 0 1 1 0 3.04l.01.01z"/></g></g><defs><clipPath id="a"><path fill="#fff" d="M0 0h67.78v87.21H0z"/></clipPath><clipPath id="b"><path fill="#fff" transform="translate(7 15)" d="M0 0h53.46v56.81H0z"/></clipPath></defs></svg>