<svg xmlns="http://www.w3.org/2000/svg" width="65" height="88" fill="none"><g fill="#00B922" clip-path="url(#a)"><path d="M32.489 87.88c-.84 0-1.52-.68-1.52-1.52V24.01a1.52 1.52 0 1 1 3.04 0v62.35c0 .84-.68 1.52-1.52 1.52Z"/><path d="M32.49 87.88h-9.51C10.58 87.88.5 77.8.5 65.4v-.9c0-.84.68-1.52 1.52-1.52h15.42c9.13 0 16.57 7.43 16.57 16.57v6.82c0 .84-.68 1.52-1.52 1.52v-.01ZM3.54 66.01c.33 10.44 8.92 18.83 19.44 18.83h7.99v-5.3c0-7.46-6.07-13.53-13.53-13.53H3.54ZM32.491 62.51c-.84 0-1.52-.68-1.52-1.52 0-6.36-5.18-11.54-11.54-11.54H7.581a16.55 16.55 0 0 0 3.13 9.01 1.519 1.519 0 0 1-2.46 1.78 19.605 19.605 0 0 1-3.72-11.53v-.78c0-.84.68-1.52 1.52-1.52h13.38c8.04 0 14.58 6.54 14.58 14.58 0 .84-.68 1.52-1.52 1.52ZM32.488 45.24c-.84 0-1.52-.68-1.52-1.52 0-5.22-4.24-9.46-9.46-9.46h-9.71c.16 2.6 1.04 5.07 2.57 7.19a1.519 1.519 0 0 1-2.46 1.78c-2.08-2.87-3.17-6.27-3.17-9.83v-.66c0-.84.68-1.52 1.52-1.52h11.25c6.89 0 12.49 5.61 12.49 12.49 0 .84-.68 1.52-1.52 1.52l.01.01ZM32.49 30.06c-.84 0-1.52-.68-1.52-1.52 0-4.17-3.39-7.55-7.55-7.55h-7.74c.17 2 .87 3.89 2.06 5.53a1.519 1.519 0 0 1-2.46 1.78 14.03 14.03 0 0 1-2.67-8.28v-.54c0-.84.68-1.52 1.52-1.52h9.3c5.84 0 10.59 4.75 10.59 10.59 0 .84-.68 1.52-1.52 1.52l-.01-.01Z"/><path d="M41.999 87.88h-9.51c-.84 0-1.52-.68-1.52-1.52v-6.82c0-9.13 7.43-16.57 16.57-16.57h15.42c.84 0 1.52.68 1.52 1.52v.9c0 12.4-10.09 22.48-22.48 22.48v.01Zm-7.99-3.04h7.99c10.52 0 19.11-8.39 19.44-18.83h-13.9c-7.46 0-13.53 6.07-13.53 13.53v5.3ZM32.489 62.51c-.84 0-1.52-.68-1.52-1.52 0-8.04 6.54-14.58 14.58-14.58h13.38c.84 0 1.52.68 1.52 1.52v.78c0 4.17-1.29 8.16-3.72 11.53a1.519 1.519 0 0 1-2.46-1.78 16.55 16.55 0 0 0 3.13-9.01h-11.85c-6.36 0-11.54 5.18-11.54 11.54 0 .84-.68 1.52-1.52 1.52ZM32.489 45.24c-.84 0-1.52-.68-1.52-1.52 0-6.89 5.6-12.49 12.49-12.49h11.25c.84 0 1.52.68 1.52 1.52v.66c0 3.56-1.1 6.96-3.17 9.83a1.519 1.519 0 0 1-2.46-1.78 13.66 13.66 0 0 0 2.57-7.19h-9.71c-5.22 0-9.46 4.24-9.46 9.46 0 .84-.68 1.52-1.52 1.52l.01-.01ZM32.489 30.06c-.84 0-1.52-.68-1.52-1.52 0-5.84 4.75-10.59 10.59-10.59h9.3c.84 0 1.52.68 1.52 1.52v.54c0 2.99-.92 5.86-2.67 8.28a1.519 1.519 0 0 1-2.46-1.78c1.18-1.64 1.88-3.53 2.06-5.53h-7.74c-4.16 0-7.55 3.39-7.55 7.55 0 .84-.68 1.52-1.52 1.52l-.01.01Z"/><path d="M32.49 25.53c-.4 0-.79-.16-1.07-.44l-4.43-4.43c-4.35-4.35-4.35-11.43 0-15.77L31.42.44a1.522 1.522 0 0 1 2.14 0l4.43 4.43c4.35 4.35 4.35 11.42 0 15.77l-4.43 4.43c-.28.28-.67.44-1.07.44v.02Zm0-21.87-3.36 3.36c-3.17 3.17-3.17 8.32 0 11.48l3.36 3.36 3.36-3.36c3.16-3.17 3.16-8.32 0-11.48l-3.36-3.36Z"/></g><defs><clipPath id="a"><path fill="#fff" d="M.5 0h63.98v87.88H.5z"/></clipPath></defs></svg>