<svg xmlns="http://www.w3.org/2000/svg" width="70" height="89" fill="none"><g fill="#333" clip-path="url(#a)"><path d="M48.36 88.36a5.83 5.83 0 0 1-5.84-6.33l1.03-12.73-11.01-3.24-6.08 9.11c-.63.94-1.43 1.73-2.39 2.34L10.1 86.44a6.201 6.201 0 0 1-4.82.81 6.153 6.153 0 0 1-3.92-2.92c-1.6-2.73-.9-6.23 1.63-8.14l12.08-9.09 11.38-34.67-9.45.13-4.65 10.05a5.78 5.78 0 0 1-7.08 3.06 5.701 5.701 0 0 1-3.4-3.02 5.759 5.759 0 0 1-.17-4.55l5.22-13.58a7.632 7.632 0 0 1 6.43-4.89l17.15-1.65c1.37-.13 2.78.04 4.08.49l9.54 3.3c1.89.66 3.51 1.86 4.68 3.49l8.12 11.3 6.88.03a5.54 5.54 0 0 1 5.5 4.99c.15 1.5-.3 2.97-1.27 4.13a5.5 5.5 0 0 1-3.84 1.97l-10.13.75c-1.96.14-3.86-.65-5.14-2.12l-5.97-6.88-4.77 13.02 15.27 5.85a6.07 6.07 0 0 1 3.8 6.65l-3.12 18.53a5.872 5.872 0 0 1-5.79 4.89l.02-.01ZM31.9 62.77c.14 0 .29.02.43.06l13.26 3.9c.69.2 1.14.86 1.08 1.58l-1.13 13.96c-.11 1.4.8 2.66 2.17 2.98.77.18 1.55.04 2.21-.4a2.8 2.8 0 0 0 1.22-1.88l3.12-18.53c.24-1.41-.56-2.8-1.89-3.31L35.7 54.74c-.77-.3-1.17-1.16-.88-1.94l6.17-16.84c.19-.5.62-.87 1.15-.97.53-.1 1.07.09 1.42.5l7.66 8.82c.65.75 1.65 1.15 2.62 1.08l10.13-.75c.68-.05 1.3-.37 1.74-.89.44-.52.64-1.19.58-1.87a2.506 2.506 0 0 0-2.49-2.26l-7.65-.03c-.49 0-.94-.24-1.23-.63l-8.57-11.92a6.543 6.543 0 0 0-3.21-2.39l-9.54-3.3c-.89-.31-1.86-.42-2.79-.33l-17.15 1.65c-1.76.17-3.25 1.3-3.89 2.96L4.55 39.21c-.27.71-.24 1.47.08 2.16.32.69.9 1.19 1.62 1.43 1.33.44 2.77-.18 3.36-1.45l5.05-10.92c.24-.53.77-.87 1.36-.88l12.53-.18c.5 0 .95.22 1.24.62.29.4.37.91.22 1.37L17.81 68.5c-.1.29-.28.55-.53.74L4.82 78.62c-1.3.98-1.66 2.77-.84 4.18.44.76 1.16 1.29 2.01 1.5.86.21 1.74.06 2.48-.41l13.97-8.93c.6-.38 1.1-.87 1.5-1.46l6.7-10.04c.29-.43.76-.67 1.26-.67v-.02ZM43.75 18.35c-.56 0-1.12-.05-1.68-.15-4.97-.92-8.28-5.71-7.36-10.68.44-2.41 1.8-4.5 3.82-5.89A9.144 9.144 0 0 1 45.4.16c2.41.44 4.5 1.8 5.89 3.82a9.144 9.144 0 0 1 1.47 6.87c-.44 2.41-1.8 4.5-3.82 5.89a9.079 9.079 0 0 1-5.19 1.62v-.01Zm-.03-15.31c-1.23 0-2.43.37-3.47 1.08a6.066 6.066 0 0 0-2.55 3.94c-.61 3.33 1.6 6.53 4.92 7.15 1.61.3 3.24-.05 4.59-.98a6.066 6.066 0 0 0 2.55-3.94c.3-1.61-.05-3.24-.98-4.59a6.066 6.066 0 0 0-3.94-2.55c-.38-.07-.75-.1-1.12-.1v-.01Z"/></g><defs><clipPath id="a"><path fill="#fff" d="M.5 0h68.84v88.36H.5z"/></clipPath></defs></svg>