<svg xmlns="http://www.w3.org/2000/svg" width="86" height="97" fill="none"><g fill="#0D5A34" clip-path="url(#a)"><path d="M19.25 91.83c-4.05 0-6.88-.96-8.6-2.92-2.67-3.04-1.67-7.48-1.14-9.86.77-3.44-2.52-6.16-2.56-6.19a1.53 1.53 0 0 1-.53-1.5c.01-.06 1.25-6.34-1.84-7.77-2.34-1.08-3.82-2.43-4.4-4.02-.39-1.07-.14-2.27.66-3.15 6.49-7.19 8.86-11.81 8.47-12.8-3.76-3.14-2.35-9.23-2.29-9.49C10.39 15.61 23.61 9.03 34.1 6.78c.81-.17 1.63.35 1.8 1.17.18.82-.35 1.63-1.17 1.8-9.59 2.05-21.66 8.06-24.75 25-.03.12-1.05 4.61 1.31 6.6.44.37.97 1.04 1.05 2.17.26 3.79-5.69 10.99-9.26 14.94-.04.05-.05.09-.05.1.13.34.67 1.29 2.81 2.28 4.39 2.03 4.01 8.01 3.69 10.29 1.29 1.3 3.86 4.48 2.93 8.59-.58 2.57-1.06 5.46.46 7.2 1.37 1.56 4.44 2.17 8.89 1.76.13 0 10.37-.78 20.49-4.95.77-.32 1.66.05 1.98.82.32.77-.05 1.66-.82 1.98-10.59 4.37-20.97 5.14-21.41 5.17-1 .09-1.94.14-2.82.14l.02-.01ZM71.74 96.5h-.03c-.84-.02-1.5-.71-1.49-1.55.22-11.91 3.5-18.57 6.66-25.01 3.73-7.6 7.26-14.78 5.32-30.51a41.19 41.19 0 0 0-.96-5.15 1.52 1.52 0 0 1 1.09-1.85c.81-.21 1.64.28 1.85 1.09.45 1.76.8 3.62 1.03 5.53 2.06 16.63-1.84 24.56-5.6 32.22-3.02 6.15-6.14 12.5-6.35 23.73a1.52 1.52 0 0 1-1.52 1.49v.01Z"/><path d="M31.331 96.5c-.76 0-1.42-.57-1.51-1.34l-.66-5.74c-.1-.83.5-1.59 1.33-1.68.83-.1 1.59.5 1.68 1.33l.66 5.74c.1.83-.5 1.59-1.33 1.68-.06 0-.12.01-.18.01h.01ZM59.63 46.09h-.14c-2.01 0-3.88-1.01-4.98-2.69a5.939 5.939 0 0 1-.48-5.63c1.68-3.85 4.37-7.24 8.01-10.07 5.49-4.25 6.47-6.13 6.5-9.31.01-1.37-.31-3.35-1.93-4.98-1.59-1.6-4.1-2.45-7.26-2.45-4.87 0-8.09 2-9.57 5.93-.84 2.24-3.04 3.74-5.47 3.74-2.02 0-3.87-1.02-4.96-2.72a5.854 5.854 0 0 1-.37-5.66C41.11 7.67 46.63 0 59.65 0h.02c8.57 0 13.55 3.33 16.22 6.11 3.12 3.26 4.91 7.67 4.91 12.1 0 6.89-2.45 10.98-10.09 16.85-3.33 2.44-4.79 5.14-5.43 6.97-.85 2.43-3.12 4.06-5.64 4.06h-.01Zm-.27-38.17c3.98 0 7.24 1.16 9.41 3.35 1.83 1.85 2.83 4.38 2.81 7.14-.04 4.43-1.84 7.16-7.68 11.68-3.23 2.51-5.62 5.51-7.09 8.89-.4.92-.31 1.92.24 2.75a2.87 2.87 0 0 0 2.44 1.32h.14c1.24 0 2.35-.82 2.78-2.03.79-2.24 2.55-5.52 6.48-8.4 6.88-5.28 8.88-8.52 8.88-14.42 0-7.3-5.66-15.17-18.1-15.17h-.01c-10.77 0-15.68 5.71-17.92 10.5-.42.9-.35 1.9.18 2.74a2.79 2.79 0 0 0 2.4 1.32c1.17 0 2.23-.71 2.63-1.77 1.95-5.17 6.24-7.9 12.41-7.9ZM59.401 61.8c-3.37 0-6.11-2.74-6.11-6.11s2.74-6.11 6.11-6.11 6.11 2.74 6.11 6.11-2.74 6.11-6.11 6.11Zm0-9.19a3.07 3.07 0 0 0-3.07 3.07c0 1.69 1.38 3.07 3.07 3.07s3.07-1.38 3.07-3.07-1.38-3.07-3.07-3.07Z"/></g><defs><clipPath id="a"><path fill="#fff" d="M0 0h85.78v96.5H0z"/></clipPath></defs></svg>