<svg width="99" height="92" fill="none" xmlns="http://www.w3.org/2000/svg"><g clip-path="url(#a)" fill="#0D5A34"><path d="M33.95 73.25h-7.03c-.84 0-1.52-.68-1.52-1.52V65.6h-6.13c-.84 0-1.52-.68-1.52-1.52v-7.03c0-.84.68-1.52 1.52-1.52h6.13V49.4c0-.84.68-1.52 1.52-1.52h7.03c.84 0 1.52.68 1.52 1.52v6.13h6.13c.84 0 1.52.68 1.52 1.52v7.03c0 .84-.68 1.52-1.52 1.52h-6.13v6.13c0 .84-.68 1.52-1.52 1.52zm-5.51-3.04h4v-6.13c0-.84.68-1.52 1.52-1.52h6.13v-4h-6.13c-.84 0-1.52-.68-1.52-1.52v-6.13h-4v6.13c0 .84-.68 1.52-1.52 1.52h-6.13v4h6.13c.84 0 1.52.68 1.52 1.52v6.13zM59.36 47.74c-.84 0-1.52-.68-1.52-1.52v-9.06c0-1.97-.96-3.83-2.58-4.96l-9-6.33a6.046 6.046 0 0 1-2.57-4.94v-8.01a1.52 1.52 0 1 1 3.04 0v8.01c0 .98.48 1.9 1.28 2.46l9 6.33a9.122 9.122 0 0 1 3.87 7.45v9.06c0 .84-.68 1.52-1.52 1.52v-.01z"/><path d="M54.84 91.13H6.04C2.71 91.13 0 88.42 0 85.09V37.16c0-2.96 1.45-5.75 3.87-7.45l9-6.33c.8-.56 1.28-1.48 1.28-2.46v-8.01a1.52 1.52 0 1 1 3.04 0v8.01c0 1.96-.96 3.81-2.57 4.94l-9 6.33a6.083 6.083 0 0 0-2.58 4.97v47.93c0 1.66 1.35 3 3 3h48.8c1.66 0 3-1.35 3-3v-9.16a1.52 1.52 0 1 1 3.04 0v9.16c0 3.33-2.71 6.04-6.04 6.04z"/><path d="M46.78 14.44H14.1c-2.36 0-4.27-1.92-4.27-4.27v-5.9C9.83 1.91 11.75 0 14.1 0h32.68c2.36 0 4.27 1.92 4.27 4.27v5.9c0 2.36-1.92 4.27-4.27 4.27zM14.1 3.04c-.68 0-1.24.55-1.24 1.24v5.9c0 .68.55 1.24 1.24 1.24h32.68c.68 0 1.24-.55 1.24-1.24v-5.9c0-.68-.55-1.24-1.24-1.24H14.1zM59.36 43.51H7.61a1.52 1.52 0 1 1 0-3.04h51.75a1.52 1.52 0 1 1 0 3.04zM59.36 80.64H7.61a1.52 1.52 0 1 1 0-3.04h51.75a1.52 1.52 0 1 1 0 3.04z"/><g><path d="M78.62 84.7c-2.73 0-5.32-.99-7.37-2.82L56.52 68.72c-4.56-4.07-4.96-11.1-.89-15.66a11.03 11.03 0 0 1 7.65-3.69c2.96-.17 5.8.83 8.01 2.8l14.73 13.16c4.56 4.07 4.96 11.1.89 15.66a11.03 11.03 0 0 1-7.65 3.69c-.21.01-.43.02-.64.02zM63.91 52.39a7.962 7.962 0 0 0-6.01 2.69c-2.96 3.31-2.67 8.42.64 11.37l14.73 13.16a7.994 7.994 0 0 0 5.82 2.03 7.962 7.962 0 0 0 5.55-2.68c2.96-3.31 2.67-8.42-.64-11.37L69.27 54.43a8.011 8.011 0 0 0-5.36-2.05v.01z"/><path d="M64.89 75.68c-.36 0-.72-.13-1.01-.39-.63-.56-.68-1.52-.12-2.14l9.03-10.11c.56-.62 1.52-.68 2.14-.12.62.56.68 1.52.12 2.14l-9.03 10.11c-.3.34-.72.51-1.13.51z"/></g><g><path d="M87.71 58.49c-4.51 0-8.76-2.77-10.41-7.24l-6.86-18.53c-2.12-5.74.82-12.13 6.55-14.25 2.78-1.03 5.79-.91 8.48.32a11.04 11.04 0 0 1 5.77 6.23l6.86 18.52c1.03 2.78.91 5.79-.32 8.48a11.04 11.04 0 0 1-6.23 5.77c-1.26.47-2.56.69-3.84.69v.01zm-6.86-37.67c-.94 0-1.89.17-2.8.5-4.17 1.54-6.3 6.19-4.76 10.35l6.86 18.53c1.54 4.17 6.19 6.3 10.35 4.76a7.989 7.989 0 0 0 4.52-4.19c.9-1.96.98-4.14.24-6.16L88.4 26.09a7.989 7.989 0 0 0-4.19-4.52 8.052 8.052 0 0 0-3.36-.74v-.01z"/><path d="M75.29 42.98c-.62 0-1.2-.38-1.42-.99-.29-.79.11-1.66.9-1.95l12.71-4.7c.79-.29 1.66.11 1.95.9.29.79-.11 1.66-.9 1.95l-12.71 4.7c-.17.06-.35.09-.53.09z"/></g></g><defs><clipPath id="a"><path fill="#fff" d="M0 0h98.79v91.13H0z"/></clipPath></defs></svg>