<svg xmlns="http://www.w3.org/2000/svg" width="101" height="82" fill="none"><g fill="#145F3A" clip-path="url(#a)"><path d="M54.641 81.97c-.4 0-.79-.16-1.07-.44l-28.91-28.91 2.15-2.15 27.83 27.83 35.95-35.95c4.35-4.35 6.74-10.13 6.74-16.28s-2.39-11.93-6.74-16.28a23.015 23.015 0 0 0-17.94-6.68c-6.68.49-12.8 3.84-16.79 9.21-.57.77-1.86.77-2.43 0a22.982 22.982 0 0 0-16.79-9.21 23.015 23.015 0 0 0-17.94 6.68c-7.2 7.2-8.83 18.07-4.07 27.06.39.74.11 1.66-.63 2.05-.74.39-1.66.11-2.05-.63-5.39-10.17-3.54-22.48 4.6-30.62 5.36-5.35 12.76-8.1 20.31-7.55 6.91.5 13.29 3.72 17.79 8.91A25.972 25.972 0 0 1 72.431.1a26.02 26.02 0 0 1 20.31 7.56c10.16 10.16 10.16 26.69 0 36.84l-37.02 37.02c-.28.28-.67.44-1.07.44l-.01.01Z"/><path d="M45.38 57.252h-.08c-.66-.04-1.22-.49-1.38-1.13l-7-26.47-5.59 15.63c-.22.6-.79 1.01-1.43 1.01H1.52a1.52 1.52 0 1 1 0-3.04h27.3l6.88-19.22c.22-.63.82-1.03 1.49-1 .66.03 1.23.49 1.4 1.13l7.05 26.66 5.96-15.43c.23-.59.79-.97 1.42-.97h16.06a1.52 1.52 0 1 1 0 3.04H54.06l-7.27 18.83c-.23.59-.79.97-1.42.97l.01-.01Z"/></g><defs><clipPath id="a"><path fill="#fff" d="M0 .03h100.35v81.94H0z"/></clipPath></defs></svg>