<svg width="90" height="91" fill="none" xmlns="http://www.w3.org/2000/svg"><g clip-path="url(#a)" fill="#00B922"><path d="M47.96 90.848H6.88c-3.79 0-6.88-3.09-6.88-6.88v-32.65c0-15.12 12.3-27.42 27.42-27.42 11.21 0 21.18 6.71 25.41 17.09.32.78-.06 1.66-.83 1.98a1.52 1.52 0 0 1-1.98-.83c-3.76-9.23-12.63-15.2-22.6-15.2-13.45 0-24.39 10.94-24.39 24.39v32.65c0 2.12 1.72 3.84 3.84 3.84h41.08c2.12 0 3.84-1.72 3.84-3.84v-10.48a1.52 1.52 0 1 1 3.04 0v10.48c0 3.79-3.09 6.88-6.88 6.88l.01-.01zM34.169 22.282c-.84 0-1.52-.68-1.52-1.52v-6.2c0-1.11-.91-2.02-2.02-2.02h-6.44c-1.11 0-2.02.9-2.02 2.02v6.2a1.52 1.52 0 1 1-3.04 0v-6.2c0-2.79 2.27-5.05 5.05-5.05h6.44c2.79 0 5.05 2.27 5.05 5.05v6.2c0 .84-.68 1.52-1.52 1.52h.02z"/><path d="M30.6 12.55c-.84 0-1.52-.68-1.52-1.52V3.48c0-.24-.2-.44-.44-.44h-2.45c-.24 0-.44.2-.44.44v7.56a1.52 1.52 0 1 1-3.04 0V3.48c0-1.92 1.56-3.48 3.48-3.48h2.45c1.92 0 3.48 1.56 3.48 3.48v7.56c0 .84-.68 1.52-1.52 1.52v-.01z"/><path d="M50.49 3.04h-24.3a1.52 1.52 0 1 1 0-3.04h24.3a1.52 1.52 0 1 1 0 3.04z"/><path d="M50.489 5.79c-.84 0-1.52-.68-1.52-1.52V1.52a1.52 1.52 0 1 1 3.04 0v2.75c0 .84-.68 1.52-1.52 1.52z"/><g><path d="M45.97 67.998c-3.79 0-7.54-1.13-10.7-3.25l-15.91-10.66a5.261 5.261 0 0 1-1.6-7.05c1.31-2.2 4.06-3.1 6.42-2.09l20.35 8.73a1.516 1.516 0 1 1-1.19 2.79l-20.35-8.73c-.96-.41-2.08-.04-2.61.85-.6 1.02-.31 2.33.68 2.98l15.91 10.66c3.07 2.05 6.78 3 10.45 2.67l25.06-2.26c.84-.07 1.57.54 1.65 1.38.08.84-.54 1.57-1.38 1.65l-25.06 2.26c-.57.05-1.14.08-1.71.08l-.01-.01z"/><path d="M46.81 57.889c-2.66 0-4.98-1.98-5.32-4.69a5.36 5.36 0 0 1 4.35-5.95l21.47-3.97c2.07-.38 4.17-.12 6.08.77l5.72 2.66c.76.35 1.09 1.26.74 2.02-.35.76-1.26 1.09-2.02.74l-5.72-2.66a7 7 0 0 0-4.25-.54l-21.47 3.97a2.324 2.324 0 0 0-1.89 2.59 2.332 2.332 0 0 0 2.61 2.02l14.56-1.85a1.519 1.519 0 0 1 .39 3.01l-14.56 1.85c-.23.03-.46.04-.68.04l-.01-.01z"/><path d="M79.941 71.777c-.17 0-.35-.03-.52-.09l-8.43-3.08c-.38-.14-.69-.42-.86-.79-.17-.36-.19-.78-.05-1.16l8.13-22.26c.14-.38.42-.69.79-.86.36-.17.78-.19 1.16-.05l8.43 3.08c.79.29 1.19 1.16.9 1.95l-8.13 22.26c-.22.62-.81 1-1.43 1h.01zm-6.49-5.5 5.58 2.04 7.09-19.4-5.58-2.04-7.09 19.41v-.01z"/></g><path d="M50.49 22.442c-1.74 0-3.3-.9-4.18-2.4-.88-1.5-.89-3.3-.03-4.82l2.89-5.1c.27-.48.77-.77 1.32-.77s1.05.29 1.32.77l2.89 5.1c.86 1.51.84 3.31-.03 4.82-.88 1.5-2.44 2.4-4.18 2.4zm0-8.48-1.57 2.77c-.46.81-.14 1.52.01 1.79.16.27.62.89 1.55.89s1.4-.62 1.55-.89c.16-.27.47-.98.01-1.79l-1.56-2.76.01-.01z"/></g><defs><clipPath id="a"><path fill="#fff" d="M0 0h89.58v90.85H0z"/></clipPath></defs></svg>