<svg width="89" height="88" fill="none" xmlns="http://www.w3.org/2000/svg"><g clip-path="url(#a)" fill="#00B922"><path d="M57.9 15.83a1.531 1.531 0 0 1-1.39-2.15c1.17-2.59 1.56-4.48 1.56-4.5.16-.82.96-1.36 1.78-1.2.82.16 1.36.95 1.2 1.78-.02.09-.44 2.23-1.77 5.17-.25.56-.81.89-1.38.89v.01zM62.67 18.54c-.3 0-.59-.09-.86-.27-.69-.47-.87-1.42-.4-2.11 1.03-1.5 2.19-2.9 3.44-4.17.59-.59 1.55-.6 2.15 0 .59.59.6 1.55 0 2.15a26.032 26.032 0 0 0-3.09 3.74c-.29.43-.77.66-1.25.66h.01z"/><path d="M66.451 14.61c-.21 0-.42 0-.64-.03-.84-.07-1.46-.8-1.39-1.64.07-.84.81-1.45 1.64-1.39.98.08 1.58-.16 1.73-.42.31-.56-.55-2.38-2.89-3.7-1.12-.63-2.33-1.02-3.33-.98-.66 0-1.18.17-1.33.44-.15.26-.04.9.54 1.7.49.68.35 1.63-.33 2.12-.68.5-1.63.35-2.12-.33-1.27-1.74-1.54-3.55-.74-4.98.7-1.25 2.15-1.98 3.96-1.98h.04c1.52 0 3.22.49 4.8 1.37 3.66 2.06 5.4 5.42 4.05 7.83-.72 1.28-2.15 1.98-3.99 1.98v.01zM14.719 31.99a1.5 1.5 0 0 1-.62-.13c-2.54-1.14-4.38-1.51-4.4-1.52-.82-.16-1.36-.96-1.2-1.78.16-.82.95-1.36 1.78-1.2.09.02 2.18.43 5.07 1.73.76.34 1.11 1.24.76 2.01-.25.56-.81.9-1.39.9v-.01zM17.45 27.21c-.3 0-.6-.09-.86-.27a30.553 30.553 0 0 1-4.09-3.39c-.59-.59-.59-1.55 0-2.15.59-.59 1.55-.59 2.15 0a26.34 26.34 0 0 0 3.67 3.04c.69.48.87 1.42.39 2.11-.29.43-.77.66-1.25.66h-.01z"/><path d="M7.67 31.26c-.63 0-1.22-.15-1.76-.45-1.25-.7-1.98-2.15-1.98-3.96 0-1.53.48-3.25 1.37-4.83.89-1.59 2.11-2.9 3.42-3.68 1.55-.94 3.16-1.07 4.42-.36 1.42.8 2.14 2.49 1.96 4.63-.07.84-.81 1.46-1.64 1.39-.84-.07-1.46-.8-1.39-1.64.08-.98-.16-1.58-.42-1.73-.26-.15-.8-.02-1.36.32-.85.51-1.71 1.45-2.34 2.57-.63 1.12-.99 2.33-.98 3.33 0 .66.17 1.18.44 1.33.26.15.9.04 1.7-.54a1.517 1.517 0 1 1 1.79 2.45c-1.08.79-2.19 1.19-3.21 1.19l-.02-.02zM29.35 79.94c-.1 0-.19 0-.29-.03-.82-.16-1.36-.95-1.2-1.78.02-.09.43-2.18 1.73-5.07.34-.76 1.24-1.11 2.01-.76.76.34 1.11 1.24.76 2.01-1.14 2.54-1.51 4.38-1.52 4.4-.14.72-.78 1.23-1.49 1.23zM22.98 76.36c-.39 0-.78-.15-1.07-.44-.59-.59-.59-1.55 0-2.15 1.11-1.11 2.13-2.34 3.04-3.66.48-.69 1.42-.87 2.11-.39s.86 1.42.39 2.11a29.02 29.02 0 0 1-3.39 4.08c-.3.3-.69.45-1.07.45h-.01z"/><path d="M27.31 84.5c-1.47 0-3.14-.46-4.79-1.38-1.59-.89-2.9-2.11-3.69-3.42-.94-1.55-1.07-3.16-.36-4.42.8-1.42 2.49-2.13 4.63-1.96.84.07 1.46.8 1.39 1.64-.07.84-.81 1.45-1.64 1.39-.98-.08-1.58.16-1.73.42-.15.26-.02.8.32 1.36.51.85 1.45 1.71 2.57 2.34 2.34 1.32 4.35 1.1 4.66.55.15-.26.04-.9-.54-1.7a1.517 1.517 0 1 1 2.45-1.79c1.27 1.74 1.54 3.55.74 4.98-.74 1.32-2.22 2-4 2l-.01-.01z"/><g><path d="M78.93 60.58c-.1 0-.19 0-.29-.03-.09-.02-2.18-.43-5.07-1.73-.76-.34-1.11-1.24-.76-2.01.34-.76 1.24-1.11 2.01-.76 2.54 1.14 4.38 1.51 4.4 1.52.82.16 1.36.96 1.2 1.78-.14.72-.78 1.23-1.49 1.23zM75.34 66.95c-.39 0-.78-.15-1.07-.44a26.34 26.34 0 0 0-3.67-3.04c-.69-.48-.86-1.42-.39-2.11.48-.69 1.42-.86 2.11-.39 1.47 1.01 2.85 2.15 4.09 3.39.59.59.6 1.55 0 2.15-.3.3-.69.45-1.07.45v-.01z"/><path d="M77.56 70.4c-.62 0-1.22-.15-1.77-.46-1.42-.8-2.14-2.49-1.96-4.63.07-.83.81-1.45 1.64-1.39.84.07 1.46.8 1.39 1.64-.08.98.16 1.58.42 1.73.56.31 2.38-.55 3.7-2.89 1.32-2.34 1.1-4.35.55-4.66-.26-.15-.9-.04-1.7.54-.68.5-1.63.35-2.12-.33-.49-.68-.35-1.63.33-2.12 1.74-1.27 3.55-1.54 4.98-.74 2.41 1.35 2.67 5.13.61 8.8-1.59 2.82-3.95 4.51-6.06 4.51h-.01z"/></g><g><path d="M40.509 72.8c-.07 0-.15 0-.22-.02-10.2-1.48-18.94-8.32-22.81-17.85-.31-.78.06-1.66.84-1.98.78-.32 1.66.06 1.98.84 3.46 8.54 11.29 14.66 20.43 15.99.83.12 1.4.89 1.28 1.72-.11.76-.76 1.3-1.5 1.3zM55.259 70.88c-.59 0-1.15-.35-1.4-.93-.33-.77.03-1.66.81-1.99 8.46-3.58 14.46-11.48 15.66-20.61.11-.83.88-1.42 1.7-1.31.83.11 1.42.87 1.31 1.7-1.34 10.19-8.04 19.01-17.49 23.01-.19.08-.39.12-.59.12v.01zM69.89 34.72c-.59 0-1.16-.35-1.4-.93-3.65-8.67-11.74-14.71-21.11-15.77a1.52 1.52 0 1 1 .34-3.02c10.46 1.18 19.49 7.93 23.56 17.61a1.521 1.521 0 0 1-1.4 2.11h.01zM17.219 40.91c-.08 0-.17 0-.25-.02-.83-.14-1.38-.92-1.24-1.75 1.66-9.9 8.16-18.13 17.38-22.01.77-.33 1.66.04 1.99.81.33.77-.04 1.66-.81 1.99-8.26 3.48-14.08 10.85-15.57 19.72a1.52 1.52 0 0 1-1.49 1.27l-.01-.01z"/><path d="M35.15 25.97c-.78 0-1.44-.6-1.51-1.39-.72-8.19-4.45-13.8-4.49-13.86-.47-.69-.29-1.64.41-2.11.69-.47 1.64-.29 2.11.41.17.25 4.21 6.33 5 15.29.07.83-.54 1.57-1.38 1.64h-.13l-.01.02zM42.21 23.89c-.56 0-1.1-.31-1.37-.85-1.65-3.38-3.61-8.82-3.62-15.49a1.52 1.52 0 1 1 3.04 0c0 6.1 1.81 11.07 3.31 14.17.37.75.05 1.66-.7 2.03-.21.1-.44.15-.66.15v-.01z"/><path d="M30.41 11.4c-.08 0-.16 0-.24-.02-2.41-.37-4.07-1.6-4.56-3.35-.83-2.95 2.1-6.26 6.66-7.54 4.56-1.28 8.78.03 9.61 2.98.49 1.75-.29 3.66-2.15 5.23-.64.54-1.6.46-2.14-.18s-.46-1.6.18-2.14c.87-.74 1.33-1.56 1.18-2.09-.27-.95-2.68-1.77-5.87-.87-3.18.89-4.83 2.84-4.56 3.8.15.54.98 1 2.11 1.17.83.13 1.4.9 1.27 1.73-.12.75-.76 1.28-1.5 1.28h.01zM10.379 59.52c-.49 0-.97-.23-1.26-.67-.47-.69-.29-1.64.41-2.11.26-.18 6.46-4.3 15.58-5.02.84-.06 1.57.56 1.63 1.39.07.84-.56 1.57-1.39 1.63-8.33.66-14.06 4.47-14.12 4.51-.26.18-.56.26-.85.26v.01zM8.04 51.18a1.52 1.52 0 1 1 0-3.04c6.57 0 11.86-2.16 14.43-3.44.75-.37 1.66-.07 2.04.68.37.75.07 1.66-.68 2.04-2.81 1.4-8.59 3.75-15.77 3.76h-.02z"/><path d="M7.51 62.94c-1.25 0-2.55-.6-3.69-1.73-1.25-1.24-2.26-3.04-2.83-5.08-.57-2.03-.65-4.09-.22-5.81.49-1.98 1.66-3.37 3.2-3.8 1.75-.49 3.66.29 5.23 2.15.54.64.46 1.6-.18 2.14s-1.6.46-2.14-.18c-.74-.87-1.55-1.33-2.09-1.18-.45.13-.85.73-1.07 1.61-.3 1.19-.22 2.74.2 4.26.42 1.51 1.17 2.87 2.04 3.74.65.64 1.3.95 1.75.82.54-.15 1-.98 1.17-2.11.13-.83.9-1.39 1.73-1.27.83.13 1.4.9 1.27 1.73-.37 2.41-1.6 4.07-3.35 4.56-.33.09-.68.14-1.02.14v.01z"/><g><path d="M58.51 79.54c-.49 0-.97-.23-1.26-.67-.17-.25-4.22-6.33-5-15.3-.07-.84.55-1.57 1.38-1.64.83-.08 1.57.55 1.64 1.38.71 8.2 4.45 13.81 4.49 13.87.47.69.29 1.64-.41 2.11-.26.18-.56.26-.85.26l.01-.01zM50.17 81.88c-.84 0-1.52-.68-1.52-1.52 0-6.43-2.08-11.65-3.32-14.18-.37-.75-.05-1.66.7-2.03.75-.37 1.66-.05 2.03.7 1.65 3.39 3.62 8.83 3.63 15.51 0 .84-.68 1.52-1.52 1.52z"/><path d="M53.17 87.91c-.82 0-1.61-.09-2.34-.27-1.98-.49-3.37-1.66-3.8-3.2-.49-1.75.29-3.66 2.15-5.23.64-.54 1.6-.46 2.14.18s.46 1.6-.18 2.14c-.87.74-1.33 1.56-1.18 2.09.13.45.73.85 1.61 1.07 1.19.3 2.74.22 4.25-.2 1.51-.42 2.87-1.17 3.74-2.04.64-.65.95-1.3.82-1.75-.15-.54-.98-1-2.11-1.17-.83-.13-1.4-.9-1.27-1.73.13-.83.9-1.39 1.73-1.27 2.41.37 4.07 1.6 4.56 3.35.43 1.54-.15 3.26-1.59 4.71-1.24 1.25-3.04 2.26-5.08 2.83-1.17.33-2.35.49-3.47.49h.02z"/></g><g><path d="M63.959 36.16c-.78 0-1.44-.6-1.51-1.39-.07-.84.54-1.57 1.38-1.64 8.15-.71 13.8-4.45 13.86-4.49.7-.47 1.64-.28 2.11.41s.29 1.64-.41 2.1c-.25.17-6.33 4.21-15.29 5h-.13l-.01.01zM65.979 43.26c-.56 0-1.1-.31-1.36-.85-.37-.75-.06-1.66.7-2.03 3.39-1.66 8.85-3.64 15.56-3.65a1.52 1.52 0 1 1 0 3.04c-6.45 0-11.69 2.1-14.23 3.34-.21.1-.44.16-.67.16v-.01z"/><path d="M83.898 41.52c-1.44 0-2.92-.8-4.18-2.29-.54-.64-.46-1.6.18-2.14s1.6-.46 2.14.18c.74.87 1.55 1.33 2.09 1.18.45-.13.85-.73 1.07-1.61.3-1.19.22-2.74-.2-4.26-.89-3.18-2.84-4.83-3.8-4.56-.54.15-1 .98-1.17 2.11-.13.83-.9 1.4-1.73 1.27-.83-.13-1.39-.9-1.27-1.73.37-2.41 1.6-4.07 3.35-4.56 2.95-.83 6.26 2.1 7.54 6.66.57 2.03.65 4.09.22 5.81-.49 1.99-1.66 3.37-3.2 3.8-.34.1-.69.14-1.04.14z"/></g></g><path d="M53.76 43.49c-.89 0-1.76-.23-2.56-.67a5.244 5.244 0 0 1-2.48-3.15c-.38-1.35-.21-2.76.48-3.98.69-1.22 1.81-2.1 3.15-2.48 1.35-.38 2.76-.21 3.98.48 1.22.69 2.1 1.81 2.48 3.15.38 1.35.21 2.76-.48 3.98a5.244 5.244 0 0 1-3.15 2.48c-.47.13-.95.2-1.42.2v-.01zm.01-7.45a2.204 2.204 0 0 0-1.93 1.12c-.29.51-.36 1.11-.2 1.67.16.57.53 1.04 1.04 1.33.51.29 1.11.36 1.67.2.57-.16 1.04-.53 1.33-1.04.29-.51.36-1.11.2-1.67-.16-.57-.53-1.04-1.04-1.33-.33-.19-.7-.28-1.08-.28h.01zM32.02 40.34c-.9 0-1.78-.23-2.59-.68a5.262 5.262 0 0 1-2.5-3.19c-.38-1.36-.21-2.79.48-4.03a5.262 5.262 0 0 1 3.19-2.5c1.36-.38 2.79-.21 4.03.48 1.23.69 2.12 1.83 2.5 3.19a5.301 5.301 0 0 1-3.67 6.54c-.47.13-.96.2-1.44.2v-.01zm.01-7.56c-.2 0-.41.03-.61.09-.58.16-1.07.54-1.36 1.07-.29.53-.37 1.14-.21 1.72.16.58.54 1.07 1.07 1.36.53.29 1.14.37 1.72.21.58-.16 1.07-.54 1.36-1.07.3-.53.37-1.14.21-1.72-.16-.58-.54-1.07-1.07-1.36a2.27 2.27 0 0 0-1.11-.29v-.01zM40.5 60.26c-.95 0-1.88-.24-2.73-.72a5.595 5.595 0 0 1-2.14-7.62 5.604 5.604 0 0 1 7.62-2.14 5.595 5.595 0 0 1 2.14 7.62 5.595 5.595 0 0 1-3.37 2.65c-.5.14-1.01.21-1.52.21zm.01-8.16c-.9 0-1.77.47-2.24 1.3-.34.6-.42 1.29-.23 1.94.18.66.61 1.21 1.21 1.54.6.34 1.29.42 1.95.23.66-.18 1.21-.61 1.54-1.21.33-.6.42-1.29.23-1.95-.18-.66-.61-1.21-1.21-1.54-.4-.22-.83-.33-1.25-.33v.02z"/></g><defs><clipPath id="a"><path fill="#fff" transform="translate(.5)" d="M0 0h87.91v87.91H0z"/></clipPath></defs></svg>