<svg xmlns="http://www.w3.org/2000/svg" width="88" height="88" fill="none"><g fill="#00B922" clip-path="url(#a)"><path d="M8.03 87.43c-2.4 0-4.28-.65-5.58-1.94-9.1-9.02 15.77-45.81 31.81-62.04 7.74-7.84 13.8-11.5 19.06-11.52h.05c5.4 0 9.14 3.72 13.1 7.66l1.11 1.1c7.39 7.3 14.36 14.2-3.52 32.3C50.23 66.98 21.56 87.36 8.1 87.42h-.07v.01Zm28.38-61.84C18 44.22-1.57 77.23 4.58 83.34c.72.71 1.92 1.05 3.5 1.06 11.51-.06 38.86-18.39 53.82-33.53 15.75-15.94 10.9-20.74 3.55-28.01l-1.12-1.11c-3.66-3.64-6.82-6.78-10.97-6.78h-.04c-4.34.02-9.87 3.49-16.91 10.62Z"/><path d="M62.911 19.72c-.16 0-.32-.02-.48-.08-.8-.26-1.23-1.12-.96-1.92 0 0 .99-3.69-3.36-10.61-.44-.71-.24-1.64.47-2.09l7.46-4.78c.67-.43 1.56-.27 2.03.37 3.73 4.96 4.42 13.29 4.45 13.65.07.84-.56 1.57-1.39 1.63-.82.06-1.57-.56-1.63-1.39 0-.07-.55-6.53-3.08-10.89l-4.97 3.19c4.21 7.33 3.05 11.43 2.9 11.89-.21.64-.8 1.04-1.44 1.04v-.01Z"/><path d="M82.422 27.33c-.28 0-.55-.08-.8-.23-7.07-4.36-13.05-2.61-13.3-2.53-.8.25-1.65-.2-1.9-1s.19-1.65.99-1.9c.29-.09 6.64-2.02 14.28 1.98l2.37-5.44c-5.43-3.2-12.8-2.35-12.87-2.34-.83.11-1.59-.49-1.69-1.32-.1-.83.49-1.59 1.32-1.69.39-.05 9.61-1.11 16.03 3.56.58.42.78 1.18.5 1.83l-3.55 8.16a1.534 1.534 0 0 1-1.39.91l.01.01ZM47.571 22.68c-.39 0-.77-.15-1.07-.44l-3.93-3.89c-.6-.59-.6-1.55 0-2.15.59-.59 1.55-.6 2.15 0l3.93 3.89c.6.59.6 1.55 0 2.15-.3.3-.69.45-1.08.45v-.01ZM29.74 54.33c-.39 0-.77-.15-1.07-.44L24.74 50c-.6-.59-.6-1.55 0-2.15.59-.59 1.55-.6 2.15 0l3.93 3.89c.6.59.6 1.55 0 2.15-.3.3-.69.45-1.08.45v-.01ZM56.34 43.15c-.39 0-.77-.15-1.07-.44l-3.93-3.89c-.6-.59-.6-1.55 0-2.15.59-.59 1.55-.6 2.15 0l3.93 3.89c.6.59.6 1.55 0 2.15-.3.3-.69.45-1.08.45v-.01ZM72.22 41.59c-.39 0-.77-.15-1.07-.44l-3.93-3.89c-.6-.59-.6-1.55 0-2.15.59-.59 1.55-.6 2.15 0L73.3 39c.6.59.6 1.55 0 2.15-.3.3-.69.45-1.08.45v-.01ZM54.06 61.41c-.39 0-.77-.15-1.07-.44l-3.4-3.38c-.6-.59-.6-1.55 0-2.15.59-.59 1.55-.6 2.15 0l3.4 3.38c.6.59.6 1.55 0 2.15-.3.3-.69.45-1.08.45v-.01ZM29.81 70.98c-.39 0-.77-.15-1.07-.44l-3.4-3.38c-.6-.59-.6-1.55 0-2.15.59-.59 1.55-.6 2.15 0l3.4 3.38c.6.59.6 1.55 0 2.15-.3.3-.69.45-1.08.45v-.01ZM10.17 73.09c-.39 0-.77-.15-1.07-.44l-3.4-3.38c-.6-.59-.6-1.55 0-2.15.59-.59 1.55-.6 2.15 0l3.4 3.38c.6.59.6 1.55 0 2.15-.3.3-.69.45-1.08.45v-.01ZM35.99 37.63c-.39 0-.77-.15-1.07-.44l-5.27-5.23c-.6-.59-.6-1.55 0-2.15.59-.59 1.55-.6 2.15 0l5.27 5.23c.6.59.6 1.55 0 2.15-.3.3-.69.45-1.08.45v-.01Z"/></g><defs><clipPath id="a"><path fill="#fff" d="M.5 0h86.99v87.43H.5z"/></clipPath></defs></svg>