<svg width="102" height="85" fill="none" xmlns="http://www.w3.org/2000/svg"><g clip-path="url(#a)" fill="#00B922"><path d="M51.2 47.63c-.4 0-.79-.16-1.07-.44L39.72 36.78l2.15-2.15 9.33 9.33 19.85-19.85c4.82-4.82 4.82-12.65 0-17.47a12.331 12.331 0 0 0-9.62-3.58c-3.58.26-6.87 2.06-9.01 4.94-.57.77-1.86.77-2.43 0a12.333 12.333 0 0 0-9.01-4.94 12.27 12.27 0 0 0-9.62 3.58c-2.72 2.73-4.01 6.48-3.52 10.31a1.519 1.519 0 0 1-3.01.39c-.61-4.77.99-9.45 4.38-12.84a15.397 15.397 0 0 1 22 .25 15.35 15.35 0 0 1 10-4.71c4.46-.32 8.83 1.3 11.99 4.46 6 6 6 15.76 0 21.76L52.28 47.18c-.28.28-.67.44-1.07.44l-.01.01z"/><path d="M47.98 32.55h-.11c-.6-.04-1.12-.44-1.32-1l-3.57-9.98-2.63 5.42c-.25.52-.78.86-1.37.86H22.5a1.52 1.52 0 1 1 0-3.04h15.53l3.79-7.82a1.526 1.526 0 0 1 2.8.15l3.62 10.12 2.83-5.42c.26-.5.78-.81 1.34-.81h9.33a1.52 1.52 0 1 1 0 3.04h-8.41l-4.01 7.68c-.26.5-.78.81-1.34.81v-.01z"/><g><path d="M82.239 74.85c-.31 0-.61-.09-.88-.28a1.52 1.52 0 0 1-.35-2.12l14.65-20.46c2.15-3 3.21-6.68 2.99-10.37l-1.13-19.12a2.225 2.225 0 0 0-2.22-2.1c-1.04 0-1.92.78-2.05 1.82l-2.79 21.97c-.1.83-.86 1.42-1.7 1.31-.83-.11-1.42-.87-1.31-1.7l2.79-21.97c.32-2.54 2.5-4.46 5.06-4.47h.02a5.26 5.26 0 0 1 5.25 4.95l1.13 19.12c.26 4.38-1.01 8.75-3.56 12.31L83.489 74.2c-.3.41-.76.63-1.24.63l-.01.02z"/><path d="M65.41 71.77h-.15a1.51 1.51 0 0 1-1.36-1.66l.61-6.28c.2-2.1 1.04-4.04 2.42-5.64l14.31-16.5a5.372 5.372 0 0 1 7.34-.73c2.34 1.81 2.78 5.19.97 7.53L80.58 60.1c-.51.66-1.46.79-2.13.27-.66-.51-.79-1.47-.27-2.13l8.97-11.61c.79-1.02.6-2.49-.42-3.27-.98-.76-2.38-.62-3.19.32l-14.31 16.5a7.01 7.01 0 0 0-1.69 3.94l-.61 6.28c-.08.78-.74 1.37-1.51 1.37h-.01z"/><path d="M83.8 84.26c-.09 0-.18 0-.27-.02l-23.31-4.27c-.4-.07-.75-.3-.98-.63-.23-.33-.32-.74-.24-1.14l1.62-8.83c.15-.82.94-1.37 1.77-1.22l23.31 4.27c.82.15 1.37.94 1.22 1.77l-1.62 8.83a1.515 1.515 0 0 1-1.49 1.25l-.01-.01zm-21.54-7.01 20.32 3.73 1.07-5.84-20.32-3.73-1.07 5.84z"/><g><path d="M19.98 74.85c-.47 0-.94-.22-1.24-.63L4.09 53.76A19.325 19.325 0 0 1 .53 41.45l1.13-19.12a5.26 5.26 0 0 1 5.25-4.95h.02c2.56 0 4.73 1.93 5.06 4.47l2.79 21.97a1.519 1.519 0 0 1-3.01.39L8.98 22.24a2.089 2.089 0 0 0-2.05-1.82c-1.18 0-2.15.92-2.22 2.1L3.58 41.64c-.22 3.68.85 7.37 2.99 10.37l14.65 20.46c.49.68.33 1.63-.35 2.12-.27.19-.58.28-.88.28l-.01-.02z"/><path d="M36.81 71.77c-.77 0-1.43-.59-1.51-1.37l-.61-6.28A7.01 7.01 0 0 0 33 60.18l-14.31-16.5a2.346 2.346 0 0 0-3.19-.32 2.328 2.328 0 0 0-.42 3.27l8.97 11.61c.51.66.39 1.62-.27 2.13-.66.51-1.62.39-2.13-.27l-8.97-11.61a5.368 5.368 0 0 1 .97-7.53 5.373 5.373 0 0 1 7.34.73l14.31 16.5c1.38 1.59 2.22 3.54 2.42 5.64l.61 6.28c.08.83-.53 1.58-1.36 1.66h-.16z"/><path d="M18.42 84.26c-.31 0-.61-.09-.86-.27-.33-.23-.56-.58-.63-.98l-1.62-8.83a1.52 1.52 0 0 1 1.22-1.77l23.31-4.27c.82-.15 1.62.39 1.77 1.22l1.62 8.83c.07.4-.01.8-.24 1.14-.23.33-.58.56-.98.63L18.7 84.23c-.09.02-.18.02-.27.02l-.01.01zm.15-9.12 1.07 5.84 20.32-3.73-1.07-5.84-20.32 3.73z"/></g></g></g><defs><clipPath id="a"><path fill="#fff" transform="translate(.5)" d="M0 0h101.21v84.26H0z"/></clipPath></defs></svg>