<svg xmlns="http://www.w3.org/2000/svg" width="87" height="83" fill="none"><g fill="#333" clip-path="url(#a)"><path d="M23.53 57.62c-.23 0-.45-.05-.67-.16a1.517 1.517 0 0 1-.69-2.03c.12-.25 12.34-24.25 42.99-12.38 2.03-3.18 8.48-11.29 20.53-9.7.83.11 1.42.87 1.31 1.7-.11.83-.88 1.41-1.7 1.31-12.63-1.66-17.9 8.8-18.12 9.25-.35.72-1.2 1.05-1.94.74-28.87-11.9-39.89 9.51-40.34 10.43-.27.53-.8.84-1.36.84h-.01Z"/><path d="M26.88 52.83c-.68 0-1.3-.46-1.47-1.15-3.37-13.33-.88-38.96-.77-40.04.08-.83.83-1.44 1.66-1.36.83.08 1.44.83 1.36 1.66-.03.26-2.55 26.18.7 39 .21.81-.29 1.64-1.1 1.84-.12.03-.25.05-.37.05h-.01Z"/><path d="M48.01 82.02c-12.41 0-26.76-1.9-41.31-7.83C2.65 72.54.17 68.48.54 64.08 1.59 51.41 4.79 26.99 14.38 5.86a7.48 7.48 0 0 1 6.07-4.34L35.91.03c3.48-.34 6.58 2.22 6.92 5.69l.87 8.96a4.34 4.34 0 0 1-1.6 3.8c-1.14.92-2.65 1.2-4.05.75l-12.33-3.95c-.8-.26-1.24-1.11-.98-1.91.26-.8 1.11-1.24 1.91-.98l12.33 3.95c.6.19 1.05-.09 1.22-.23.17-.13.54-.51.48-1.14l-.87-8.96a3.318 3.318 0 0 0-3.6-2.97l-15.46 1.5a4.418 4.418 0 0 0-3.59 2.57C7.39 28.6 4.4 54.29 3.56 64.34c-.25 3.06 1.47 5.89 4.28 7.04 39.08 15.94 76.73 1.94 77.11 1.8.78-.3 1.66.09 1.96.88.3.78-.09 1.66-.88 1.96-.25.09-16.12 6.01-38.03 6.01l.01-.01Z"/><path d="M54.74 71.9c-5.5 0-10.09-1.96-10.41-2.1a1.514 1.514 0 0 1-.78-2c.34-.77 1.23-1.12 2-.78.14.06 11.55 4.9 18.79-1.46.63-.55 1.59-.49 2.14.14s.49 1.59-.14 2.14c-3.56 3.13-7.8 4.07-11.6 4.07v-.01Z"/></g><defs><clipPath id="a"><path fill="#fff" d="M.5 0h86.51v82.02H.5z"/></clipPath></defs></svg>