<svg xmlns="http://www.w3.org/2000/svg" width="86" height="85" fill="none"><g fill="#333" clip-path="url(#a)"><path d="M68.37 83.63c-5.37 0-9.97-1.26-10.3-1.35a1.51 1.51 0 0 1-1.05-1.87 1.52 1.52 0 0 1 1.87-1.06c.13.04 12.91 3.51 19.63-1.36 2.57-1.86 3.9-4.67 4.08-8.58.41-9.11-3.74-12.56-8.14-16.21-3.85-3.19-7.83-6.5-8.35-13.4C64.84 23.18 54.79 2.38 54.69 2.17c-.37-.75-.05-1.66.7-2.03.75-.37 1.66-.05 2.03.7.42.87 10.41 21.53 11.72 38.73.43 5.62 3.6 8.25 7.26 11.29 4.55 3.78 9.71 8.06 9.23 18.68-.22 4.83-2.02 8.5-5.34 10.9-3.4 2.46-7.87 3.17-11.92 3.17v.02ZM17.78 83.63c-4.04 0-8.52-.71-11.92-3.17-3.32-2.4-5.12-6.07-5.34-10.9-.48-10.62 4.68-14.9 9.23-18.68 3.67-3.04 6.84-5.67 7.26-11.29C18.34 22.38 28.32 1.72 28.75.85c.37-.75 1.28-1.07 2.03-.7.75.37 1.07 1.28.7 2.03-.1.21-10.16 21.02-11.42 37.63-.53 6.9-4.5 10.2-8.35 13.4-4.4 3.65-8.55 7.1-8.14 16.21.18 3.91 1.51 6.72 4.08 8.58 6.72 4.87 19.5 1.4 19.63 1.36.81-.22 1.64.25 1.87 1.06.22.81-.25 1.64-1.05 1.87-.33.09-4.94 1.35-10.3 1.35l-.02-.01Z"/><path d="M43.09 84.13c-5.35 0-8.37-2.87-11.03-5.4-2.35-2.23-4.37-4.15-7.76-4.15-3.75 0-5.17.91-5.68 1.45-.46.49-.45.94-.44.99.12.83-.46 1.57-1.29 1.69-.83.12-1.6-.48-1.72-1.31-.03-.18-.21-1.77 1.1-3.29 1.47-1.7 4.17-2.57 8.03-2.57 4.6 0 7.39 2.65 9.85 4.99 2.47 2.35 4.8 4.56 8.94 4.56s6.95-2.33 9.75-4.8c2.65-2.34 5.4-4.75 9.44-4.75 9.76 0 9.87 5.41 9.87 5.64a1.52 1.52 0 1 1-3.04 0c-.08-.86-1.61-2.6-6.83-2.6-2.9 0-5 1.85-7.43 3.99-2.96 2.61-6.32 5.56-11.76 5.56Z"/></g><defs><clipPath id="a"><path fill="#fff" d="M.5 0h85.15v84.13H.5z"/></clipPath></defs></svg>