<svg xmlns="http://www.w3.org/2000/svg" width="77" height="89" fill="none"><g fill="#00B922" clip-path="url(#a)"><path d="M29.83 88.98H5.88A5.89 5.89 0 0 1 0 83.1V67.39c0-2.61 2.12-4.74 4.74-4.74h26.24c2.61 0 4.74 2.12 4.74 4.74V83.1a5.89 5.89 0 0 1-5.88 5.88h-.01ZM4.74 65.69c-.94 0-1.7.76-1.7 1.7V83.1c0 1.57 1.28 2.84 2.84 2.84h23.95c1.57 0 2.84-1.28 2.84-2.84V67.39c0-.94-.76-1.7-1.7-1.7H4.74Z"/><path d="M30.98 65.69H4.74C2.13 65.69 0 63.57 0 60.95V44.1c0-2.61 2.12-4.74 4.74-4.74h26.24c2.61 0 4.74 2.12 4.74 4.74v16.85c0 2.61-2.12 4.74-4.74 4.74ZM4.74 42.4c-.94 0-1.7.76-1.7 1.7v16.85c0 .94.76 1.7 1.7 1.7h26.24c.94 0 1.7-.76 1.7-1.7V44.1c0-.94-.76-1.7-1.7-1.7H4.74ZM23.4 10.52H12.31c-.84 0-1.52-.68-1.52-1.52V3.06c0-1.41 1.15-2.56 2.56-2.56h9.01c1.41 0 2.56 1.15 2.56 2.56v5.95c0 .84-.68 1.52-1.52 1.52v-.01Zm-9.57-3.03h8.05V3.54h-8.05v3.95Z"/><path d="M34.19 42.4H1.52C.68 42.4 0 41.72 0 40.88V28.7c0-6.64 3.97-12.58 10.11-15.11l.72-.3-.04-4.27c0-.4.16-.79.44-1.08.29-.29.67-.45 1.08-.45H23.4c.4 0 .79.16 1.08.45.28.29.44.68.44 1.08l-.04 4.27.72.3A16.307 16.307 0 0 1 35.71 28.7v12.18c0 .84-.68 1.52-1.52 1.52ZM3.04 39.37h29.64V28.71c0-5.41-3.23-10.24-8.23-12.31l-1.02-.42c-.97-.4-1.59-1.34-1.58-2.39l.03-3.07h-8.02l.03 3.06c0 1.05-.61 1.99-1.58 2.39l-1.02.42c-5 2.07-8.23 6.9-8.23 12.31v10.66l-.02.01ZM72.609 88.98h-25.6c-.81 0-1.47-.63-1.52-1.44l-2.6-50.77a1.52 1.52 0 0 1 1.52-1.59h30.81a1.52 1.52 0 0 1 1.52 1.59l-2.6 50.77c-.04.81-.71 1.44-1.52 1.44h-.01Zm-24.16-3.03h22.72l2.45-47.74h-27.61l2.45 47.74h-.01Z"/><path d="M73.78 52.41H45.84a1.52 1.52 0 1 1 0-3.04h27.94a1.52 1.52 0 1 1 0 3.04Z"/></g><defs><clipPath id="a"><path fill="#fff" d="M0 .5h76.73v88.48H0z"/></clipPath></defs></svg>