<svg width="109" height="91" fill="none" xmlns="http://www.w3.org/2000/svg"><g clip-path="url(#a)" fill="#00B922"><path d="M97.76 90.811h-.03c-.84-.02-1.5-.71-1.49-1.55.17-9.11 2.67-14.2 5.09-19.13 2.81-5.72 5.46-11.11 4-22.94-2.64-21.36-23.49-22.78-24.38-22.83-.04 0-.07 0-.11-.01-.07 0-6.57-.8-13.45 1.25-8.99 2.67-14.41 8.75-16.11 18.06-.02.11-.72 3.32.87 4.66.39.32.86.92.93 1.9.19 2.82-3.67 7.77-7 11.47.18.28.65.8 1.86 1.36 3.09 1.43 3.4 5.38 3.04 8.02 1.06 1.11 2.89 3.57 2.19 6.72-.42 1.86-.78 3.95.27 5.14.96 1.09 3.18 1.51 6.43 1.21.11 0 7.82-.59 15.44-3.73.77-.32 1.66.05 1.98.82.32.77-.05 1.66-.82 1.98-8.09 3.34-16.02 3.93-16.35 3.95-4.35.4-7.29-.33-8.96-2.24-2.15-2.45-1.37-5.93-.95-7.8.53-2.38-1.79-4.31-1.81-4.33a1.53 1.53 0 0 1-.53-1.5c.25-1.16.56-4.67-1.19-5.48-1.87-.86-3.05-1.96-3.53-3.25-.34-.94-.12-1.99.57-2.76 4.42-4.9 6.33-8.28 6.35-9.27-2.87-2.6-1.79-7.28-1.74-7.48 4.47-24.53 31.48-21.86 32.86-21.7 1.34.1 24.28 2.15 27.17 25.48 1.57 12.72-1.41 18.78-4.29 24.65-2.27 4.63-4.62 9.41-4.78 17.85a1.52 1.52 0 0 1-1.52 1.49l-.01-.01z"/><path d="M67.109 90.811c-.76 0-1.42-.57-1.51-1.34l-.5-4.36c-.1-.83.5-1.59 1.33-1.68.84-.09 1.59.5 1.68 1.33l.5 4.36c.1.83-.5 1.59-1.33 1.68-.06 0-.12.01-.18.01h.01zM44.24 35.04c-.61 0-1.21-.18-1.73-.53l-9.16-6.11H18.1a6 6 0 0 1-5.99-5.99V6.49A6 6 0 0 1 18.1.5h28.78a6 6 0 0 1 5.99 5.99v15.92c0 3.13-2.42 5.71-5.49 5.97v3.53a3.123 3.123 0 0 1-3.13 3.13h-.01zM18.09 3.54c-1.63 0-2.95 1.32-2.95 2.95v15.92c0 1.63 1.32 2.95 2.95 2.95H33.8c.3 0 .59.09.84.26l9.55 6.37s.05.03.09 0c.05-.03.05-.06.05-.08v-5.03c0-.84.68-1.52 1.52-1.52h1.02c1.63 0 2.95-1.32 2.95-2.95V6.49c0-1.63-1.32-2.95-2.95-2.95H18.09z"/><path d="M8.62 52.45c-.51 0-1.01-.12-1.48-.37a3.111 3.111 0 0 1-1.65-2.76v-3.53A5.991 5.991 0 0 1 0 39.82V23.9a6 6 0 0 1 5.99-5.99h2.63a1.52 1.52 0 1 1 0 3.04H5.99c-1.63 0-2.95 1.32-2.95 2.95v15.92c0 1.63 1.32 2.95 2.95 2.95h1.02c.84 0 1.52.68 1.52 1.52v5.03s0 .05.05.08c.05.02.07 0 .09 0l9.54-6.37c.25-.17.54-.26.84-.26h15.71c1.63 0 2.95-1.32 2.95-2.95v-2.83a1.52 1.52 0 1 1 3.04 0v2.83a6 6 0 0 1-5.99 5.99H19.51l-9.16 6.11c-.53.35-1.13.53-1.74.53h.01z"/></g><defs><clipPath id="a"><path fill="#fff" transform="translate(0 .5)" d="M0 0h108.77v90.31H0z"/></clipPath></defs></svg>