<svg width="108" height="85" fill="none" xmlns="http://www.w3.org/2000/svg"><g fill="#00B922" clip-path="url(#a)"><path d="M94.137 84.79h-43.83c-.42 0-.82-.17-1.11-.48-.29-.31-.43-.72-.4-1.14l3.62-52.71c.06-.8.72-1.41 1.51-1.41h39.69c.83 0 1.51.67 1.52 1.5l.52 52.71a1.52 1.52 0 0 1-1.52 1.53zm-42.2-3.04h40.67l-.49-49.67h-36.77l-3.41 49.67z"/><path d="M84.079 36.88c-.84 0-1.52-.68-1.52-1.52v-8.35c0-4.63-3.77-8.4-8.4-8.4-4.63 0-8.4 3.77-8.4 8.4v8.35a1.52 1.52 0 1 1-3.04 0v-8.35c0-6.31 5.13-11.44 11.44-11.44s11.44 5.13 11.44 11.44v8.35c0 .84-.68 1.52-1.52 1.52zM105.516 84.792h-5.65a1.52 1.52 0 1 1 0-3.04h3.94l-5.7-47.72-.38.42c-.28.3-.66.48-1.07.49-.42.02-.81-.14-1.1-.42l-2.98-2.87c-.6-.58-.62-1.54-.04-2.15.58-.6 1.54-.62 2.15-.04l1.85 1.79 1.57-1.72a1.511 1.511 0 0 1 2.62.85l6.29 52.71c.05.43-.08.86-.37 1.19-.29.32-.7.51-1.13.51z"/><g><path d="M43.36 84.788h-27.8a1.52 1.52 0 0 1-1.52-1.53l.64-65.11c0-.83.69-1.5 1.52-1.5h43.5a1.52 1.52 0 1 1 0 3.04H17.71l-.61 62.08h26.26a1.52 1.52 0 1 1 0 3.04v-.02z"/><path d="M52.517 25.6c-.84 0-1.52-.68-1.52-1.52V13.77c0-5.92-4.82-10.74-10.74-10.74s-10.74 4.82-10.74 10.74v10.31a1.52 1.52 0 1 1-3.04 0V13.77c0-7.59 6.18-13.77 13.77-13.77s13.77 6.18 13.77 13.77v10.31c0 .84-.68 1.52-1.52 1.52h.02zM9.588 84.79h-8.07a1.516 1.516 0 0 1-1.5-1.7l7.77-65.11c.07-.59.48-1.08 1.04-1.27.56-.18 1.18-.02 1.58.42l2.18 2.39 2.55-2.46c.6-.58 1.56-.56 2.15.04.58.6.56 1.56-.04 2.15l-3.68 3.55c-.3.28-.67.44-1.1.42-.41-.01-.8-.19-1.07-.49l-1-1.1-7.18 60.12h6.36a1.52 1.52 0 1 1 0 3.04h.01z"/></g></g><defs><clipPath id="a"><path fill="#fff" d="M0 0h107.03v84.79H0z"/></clipPath></defs></svg>