<svg width="87" height="105" fill="none" xmlns="http://www.w3.org/2000/svg"><g fill-rule="evenodd" clip-rule="evenodd" fill="#0D5A34"><path d="m35.587 1.108 8.903 8.903a1.399 1.399 0 0 1 0 1.978l-8.903 8.903a1.399 1.399 0 0 1-1.978-1.979l6.361-6.36a39.838 39.838 0 0 0-15.796 4.801C11.787 24.181 3.4 37.362 3.4 52.5c0 15.842 9.187 29.542 22.53 36.057A1.399 1.399 0 1 1 24.7 91.07C10.434 84.105.601 69.45.601 52.5c0-16.198 8.978-30.297 22.223-37.596a42.644 42.644 0 0 1 17.421-5.181l-6.636-6.636a1.399 1.399 0 1 1 1.978-1.979zM51.413 103.892l-8.903-8.903a1.399 1.399 0 0 1 0-1.978l8.903-8.903a1.399 1.399 0 1 1 1.978 1.979l-6.361 6.36a39.838 39.838 0 0 0 15.796-4.801C75.213 80.819 83.6 67.638 83.6 52.5c0-15.842-9.187-29.542-22.53-36.057A1.399 1.399 0 1 1 62.3 13.93c14.267 6.966 24.1 21.62 24.1 38.571 0 16.198-8.978 30.297-22.223 37.596a42.643 42.643 0 0 1-17.421 5.181l6.636 6.636a1.4 1.4 0 0 1-1.978 1.979z"/><path d="M24.643 28.62a1.399 1.399 0 0 1 1.96.262L45.08 53.05a1.399 1.399 0 0 1-2.223 1.7L24.381 30.58a1.399 1.399 0 0 1 .262-1.96z"/><path d="M66.454 42.33c.353.687.083 1.53-.604 1.884L44.606 55.143a1.399 1.399 0 0 1-1.28-2.488L64.57 41.726a1.399 1.399 0 0 1 1.884.604z"/></g></svg>