<svg width="95" height="93" fill="none" xmlns="http://www.w3.org/2000/svg"><g clip-path="url(#a)" fill="#00B922"><path d="M19.16 75.99c-2.65 0-5.28-.81-7.77-2.38-5.08-3.22-8.83-9.15-10.28-16.25-2.5-12.25 2.87-24.03 11.97-26.25 3.89-.95 8.05-.04 11.7 2.57a4.987 4.987 0 0 0 5.8 0c3.65-2.61 7.81-3.52 11.7-2.57 5.61 1.37 10.01 6.41 11.78 13.46.2.81-.29 1.64-1.11 1.84-.81.2-1.64-.29-1.84-1.1-1.48-5.94-5.06-10.15-9.55-11.25-3.06-.75-6.25-.03-9.21 2.09a8.037 8.037 0 0 1-9.33 0c-2.96-2.12-6.15-2.84-9.21-2.09C6.28 35.9 1.92 46.09 4.1 56.76c1.26 6.21 4.6 11.55 8.93 14.29 2.77 1.76 5.72 2.32 8.53 1.63a25.1 25.1 0 0 1 12.21-.01c.81.2 1.34 1.04 1.13 1.85-.2.81-.99 1.32-1.81 1.11-3.56-.89-7.25-.89-10.74-.02-1.06.26-2.12.39-3.18.39l-.01-.01z"/><path d="M27.609 37.62c-.75 0-1.4-.55-1.5-1.31-.05-.36-1.08-8.81 7.03-16.09.62-.56 1.58-.51 2.14.11s.51 1.58-.12 2.14c-6.87 6.17-6.09 13.14-6.05 13.44.1.83-.48 1.59-1.31 1.7-.07 0-.13.01-.2.01h.01z"/><path d="M23.619 30.4c-5.87 0-10.83-4.91-11.06-5.14a1.521 1.521 0 0 1 .12-2.25c4.48-3.64 8.82-5.21 12.87-4.66 4.92.66 7.53 4.22 7.64 4.38.49.68.33 1.63-.35 2.12-.68.49-1.63.33-2.11-.34-.05-.07-2.04-2.69-5.63-3.15-2.77-.36-5.81.62-9.06 2.91 1.85 1.44 5.36 3.64 8.86 2.99.81-.15 1.62.39 1.77 1.21.15.82-.39 1.62-1.22 1.77-.62.12-1.24.17-1.84.17l.01-.01zM39.41 92.13c-1.23 0-2.26-.32-3.04-1.02-4.23-3.85 2.57-15.78 4.8-19.7 4.74-8.32 11.69-17.97 17.7-24.58 5.74-6.31 9.97-9.21 13.7-9.38 3.45-.15 5.86 2.03 8.18 4.15l.69.63c2.33 2.11 4.74 4.3 4.91 7.75.18 3.74-2.3 8.22-8.04 14.53-7.85 8.64-29.39 27.62-38.91 27.62h.01zm33.51-51.66h-.21c-2.79.13-6.58 2.87-11.6 8.39-13.99 15.39-25.66 37.31-22.7 39.99 2.95 2.69 23.66-11.01 37.66-26.4 5.02-5.52 7.39-9.55 7.25-12.34-.11-2.2-1.79-3.72-3.92-5.65l-.7-.63c-2.05-1.87-3.69-3.37-5.79-3.37l.01.01z"/><path d="M78.18 42.83c-.17 0-.34-.03-.51-.09-.79-.28-1.2-1.15-.91-1.94 0 0 .65-2.31-1.79-6.2-.42-.67-.26-1.54.37-2.02l5.02-3.79c.66-.5 1.6-.38 2.11.28 2.42 3.12 2.63 8.74 2.63 8.97.03.84-.63 1.54-1.47 1.56-.82.05-1.54-.63-1.57-1.47-.04-1.09-.34-3.86-1.24-5.91l-2.59 1.96c2.38 4.47 1.49 7.3 1.37 7.63-.22.62-.81 1-1.43 1l.01.02z"/><path d="M90.68 46.15c-.23 0-.47-.05-.68-.16-4.2-2.12-7.96-.54-8.12-.47a1.53 1.53 0 0 1-2-.78c-.34-.77 0-1.66.77-1.99.19-.08 4.34-1.88 9.26-.09l1.34-2.97c-3.15-1.13-7.25-.13-7.3-.12-.81.2-1.64-.29-1.84-1.1-.2-.81.29-1.64 1.1-1.84.27-.07 6.54-1.62 10.84 1.05.65.4.9 1.22.58 1.92l-2.57 5.67a1.525 1.525 0 0 1-1.39.9l.01-.02zM68.08 46.1c-.36 0-.73-.13-1.02-.39l-2.44-2.22c-.62-.56-.67-1.52-.1-2.14.56-.62 1.52-.67 2.14-.1l2.44 2.22c.62.56.67 1.52.1 2.14-.3.33-.71.5-1.12.5v-.01zM55.47 68.46c-.36 0-.73-.13-1.02-.39l-2.44-2.22c-.62-.56-.67-1.52-.1-2.14.56-.62 1.52-.67 2.14-.1l2.44 2.22c.62.56.67 1.52.1 2.14-.3.33-.71.5-1.12.5v-.01zM73.169 58.8c-.36 0-.73-.13-1.02-.39l-2.44-2.22c-.62-.56-.67-1.52-.1-2.14.56-.62 1.52-.67 2.14-.1l2.44 2.22c.62.56.67 1.52.1 2.14-.3.33-.71.5-1.12.5v-.01zM83.589 56.4c-.36 0-.73-.13-1.02-.39l-2.44-2.22c-.62-.56-.67-1.52-.1-2.14.56-.62 1.52-.67 2.14-.1l2.44 2.22c.62.56.67 1.52.1 2.14-.3.33-.71.5-1.12.5v-.01zM71.13 71.01c-.36 0-.73-.13-1.02-.4l-2.12-1.93c-.62-.56-.67-1.52-.1-2.14.56-.62 1.52-.67 2.14-.1l2.12 1.93c.62.56.67 1.52.1 2.14-.3.33-.71.5-1.12.5zM55.01 79.4c-.36 0-.73-.13-1.02-.4l-2.12-1.93c-.62-.56-.67-1.52-.1-2.14.56-.62 1.52-.67 2.14-.1l2.12 1.93c.62.56.67 1.52.1 2.14-.3.33-.71.5-1.12.5zM42.13 82.48c-.36 0-.73-.13-1.02-.4l-2.12-1.93c-.62-.56-.67-1.52-.1-2.14.56-.62 1.52-.67 2.14-.1l2.12 1.93c.62.56.67 1.52.1 2.14-.3.33-.71.5-1.12.5zM60.06 56.93c-.36 0-.73-.13-1.02-.39l-3.28-2.98c-.62-.56-.67-1.52-.1-2.14.56-.62 1.52-.67 2.14-.1l3.28 2.98c.62.56.67 1.52.1 2.14-.3.33-.71.5-1.12.5v-.01zM84.18 25.84h-.03c-.84-.02-1.5-.71-1.49-1.55.03-1.3-.26-1.47-1.44-2.14-1.14-.65-2.71-1.55-4.03-3.81-.61-1.04-.75-2.33-.9-3.71-.18-1.65-.36-3.36-1.38-4.2-.5-.42-1.91-.4-3.14-.39-1.67.02-3.57.04-5.23-.75-1.31-.62-2.24-1.91-3.14-3.15-.9-1.25-1.83-2.53-2.93-2.85-1.38-.39-3.06.29-4.7.95-1.42.58-2.89 1.17-4.34 1.14-1.8-.04-3.54-.75-5.07-1.37-1.51-.61-2.93-1.19-3.82-.91-1.4.45-2.38 2.09-3.32 3.67-.77 1.3-1.49 2.52-2.54 3.33-2.21 1.72-4.07 1.98-5.43 2.17-1.42.2-2.01.28-2.83 1.76a1.515 1.515 0 1 1-2.65-1.47c1.55-2.79 3.41-3.05 5.06-3.28 1.24-.18 2.42-.34 3.99-1.56.59-.46 1.17-1.44 1.79-2.48 1.11-1.88 2.5-4.22 5.01-5.01 1.93-.61 3.94.2 5.88.99 1.35.55 2.75 1.12 4 1.15.81.02 1.94-.43 3.12-.92C56.63.63 58.91-.29 61.29.39c2.11.6 3.41 2.4 4.56 3.99.68.93 1.37 1.9 1.99 2.19 1.02.49 2.48.47 3.89.46 1.85-.02 3.75-.04 5.11 1.08 1.96 1.63 2.24 4.17 2.46 6.22.11.99.22 2.02.5 2.49.92 1.56 1.94 2.15 2.92 2.71 1.35.77 3.03 1.73 2.97 4.84a1.52 1.52 0 0 1-1.52 1.49l.01-.02zM47.7 36.27c-.2 0-.41-.04-.61-.13a1.51 1.51 0 0 1-.77-2c.02-.05 2.31-5.33 1.23-9.71-.2-.81.3-1.64 1.11-1.84.81-.2 1.64.3 1.84 1.11 1.33 5.4-1.28 11.41-1.4 11.66-.25.57-.81.9-1.39.9l-.01.01zM51.88 41.05c-.27 0-.53-.07-.78-.22-.72-.43-.95-1.36-.52-2.08.16-.27 3.99-6.59 9.73-10.59.69-.48 1.63-.31 2.11.38s.31 1.63-.38 2.11c-5.19 3.62-8.82 9.6-8.86 9.66-.28.47-.79.74-1.3.74z"/></g><defs><clipPath id="a"><path fill="#fff" transform="translate(.5)" d="M0 0h94.27v92.13H0z"/></clipPath></defs></svg>