<svg width="105" height="62" fill="none" xmlns="http://www.w3.org/2000/svg"><g clip-path="url(#a)" fill="#333"><path d="M85.668 18.03c-.24 0-.47-.05-.7-.17l-21.3-11.03c-7.11-3.38-15.31-3.38-22.46.02l-21.26 11.01c-.74.38-1.66.09-2.05-.65-.39-.74-.09-1.66.65-2.05l21.3-11.03c8.03-3.82 17.18-3.82 25.16-.02l21.35 11.05c.74.39 1.03 1.3.65 2.05-.27.52-.8.82-1.35.82h.01z"/><path d="M19.8 49.849a1.52 1.52 0 0 1-1.04-2.63c.17-.18 6.46-7.19-3.49-35.58-1.8-5.15-4.31-8.28-6.86-8.58-1.53-.18-3.08.71-4.15 2.37-1.23 1.9-1.99 5.24-.09 8.39.61 1.01 1.2 1.95 1.76 2.87 4.72 7.6 8.12 13.1 9.68 30.55.07.84-.54 1.57-1.38 1.65-.84.07-1.57-.54-1.65-1.38-1.49-16.73-4.74-21.97-9.24-29.22-.57-.93-1.17-1.89-1.78-2.9-2.14-3.57-2.08-8.13.16-11.6 1.72-2.67 4.36-4.06 7.06-3.75 2.69.32 6.5 2.42 9.37 10.59 10.71 30.55 3.52 38.08 2.66 38.83-.29.26-.65.38-1.01.38v.01zM85.129 49.861c-.37 0-.73-.13-1.03-.39-.86-.76-8.05-8.28 2.66-38.83 2.88-8.18 6.68-10.28 9.38-10.6 2.7-.32 5.34 1.08 7.06 3.74 2.24 3.47 2.3 8.03.14 11.6-.61 1.02-1.21 1.98-1.78 2.9-4.5 7.25-7.74 12.49-9.24 29.22-.07.83-.81 1.44-1.65 1.38-.83-.07-1.45-.81-1.38-1.65 1.56-17.45 4.96-22.94 9.68-30.55.57-.92 1.16-1.86 1.76-2.87 1.9-3.15 1.14-6.49-.09-8.39-1.07-1.67-2.63-2.56-4.15-2.37-2.55.3-5.05 3.43-6.86 8.58-10.04 28.63-3.55 35.52-3.48 35.59.63.56.67 1.5.11 2.13-.3.33-.71.5-1.13.5v.01z"/><path d="M52.459 61.538c-5.52 0-11.03-1.22-16.17-3.67l-17.14-8.16a1.515 1.515 0 0 1-.72-2.02c.36-.76 1.27-1.08 2.02-.72l17.14 8.16c9.45 4.5 20.29 4.5 29.74 0l17.14-8.16c.75-.36 1.66-.04 2.02.72.36.76.04 1.66-.72 2.02l-17.14 8.16a37.548 37.548 0 0 1-16.17 3.67zM74.678 27.659c-.12 0-.24-.01-.36-.04l-14.67-3.61c-4.56-1.12-9.8-1.12-14.36 0l-14.67 3.61c-.82.2-1.64-.3-1.84-1.11-.2-.81.3-1.64 1.11-1.84l14.67-3.61c5.03-1.24 10.79-1.24 15.81 0l14.67 3.61a1.524 1.524 0 0 1-.36 3v-.01zM52.46 43.128c-3.72 0-7.45-.43-10.92-1.28l-11.66-2.87c-.81-.2-1.31-1.02-1.11-1.84.2-.81 1.02-1.31 1.84-1.11l11.66 2.87c6.48 1.6 13.91 1.6 20.39 0l11.65-2.87c.82-.2 1.64.3 1.84 1.11.2.81-.3 1.64-1.11 1.84l-11.66 2.87c-3.47.85-7.2 1.28-10.92 1.28z"/></g><defs><clipPath id="a"><path fill="#fff" d="M0 0h104.92v61.54H0z"/></clipPath></defs></svg>