<svg width="110" height="110" fill="none" xmlns="http://www.w3.org/2000/svg"><g fill-rule="evenodd" clip-rule="evenodd" fill="#0D5A34"><path d="M48.47 16.65c2.903-5.028 10.159-5.028 13.061 0l40.34 69.87c2.902 5.027-.725 11.31-6.53 11.31h-80.68c-5.805 0-9.432-6.283-6.53-11.31l40.34-69.87zm10.756 1.33c-1.878-3.253-6.572-3.253-8.45 0l-40.34 69.87c-1.878 3.254.47 7.32 4.225 7.32h80.68c3.756 0 6.103-4.066 4.225-7.32l-40.34-69.87z"/><path d="M48.912 40.355a6.089 6.089 0 1 1 12.178 0v23.79a6.089 6.089 0 1 1-12.178 0v-23.79zm6.089-3.427a3.427 3.427 0 0 0-3.428 3.427v23.79a3.427 3.427 0 0 0 6.855 0v-23.79a3.427 3.427 0 0 0-3.427-3.427zM55 77.847a3.427 3.427 0 1 0 0 6.855 3.427 3.427 0 0 0 0-6.855zm-6.088 3.427a6.089 6.089 0 1 1 12.178 0 6.089 6.089 0 0 1-12.178 0z"/></g></svg>