<svg xmlns="http://www.w3.org/2000/svg" width="77" height="77" fill="none"><g fill="#00B922" clip-path="url(#a)"><path d="M63.569 76.67c-3.5 0-6.79-1.36-9.26-3.84l-36.32-36.32c-1.68-1.68-2.81-3.8-3.27-6.13l-1.13-5.74a8.85 8.85 0 0 0-2.44-4.57l-9.3-9.3c-2.47-2.46-2.46-6.46 0-8.92A6.263 6.263 0 0 1 6.309 0c1.69 0 3.27.66 4.46 1.85l9.3 9.3a8.923 8.923 0 0 0 4.57 2.44l5.74 1.13c2.33.46 4.45 1.59 6.13 3.27l36.32 36.32c2.47 2.47 3.84 5.76 3.84 9.26s-1.36 6.79-3.84 9.26a13.02 13.02 0 0 1-9.26 3.84ZM6.309 3.04c-.87 0-1.7.34-2.32.96a3.271 3.271 0 0 0 0 4.63l9.3 9.3c1.68 1.68 2.81 3.8 3.27 6.13l1.13 5.74a8.85 8.85 0 0 0 2.44 4.57l36.32 36.32c1.9 1.9 4.43 2.95 7.11 2.95 2.68 0 5.21-1.05 7.11-2.95 3.92-3.92 3.92-10.31 0-14.23l-36.31-36.32a8.923 8.923 0 0 0-4.57-2.44l-5.74-1.13c-2.33-.46-4.45-1.59-6.13-3.27L8.619 4c-.62-.62-1.44-.96-2.32-.96h.01Z"/><path d="M6.61 14.91c-.39 0-.78-.15-1.07-.44-.59-.59-.59-1.55 0-2.15l6.78-6.78c.59-.59 1.55-.59 2.15 0 .59.59.59 1.55 0 2.15l-6.78 6.78c-.3.3-.68.44-1.07.44h-.01ZM26.368 44.272c-.39 0-.78-.15-1.07-.44-.59-.59-.59-1.55 0-2.15l2.95-2.95c.59-.59 1.55-.59 2.15 0 .59.59.59 1.55 0 2.15l-2.95 2.95c-.3.3-.68.44-1.07.44h-.01ZM37.95 55.842c-.39 0-.78-.15-1.07-.44-.59-.59-.59-1.55 0-2.15l2.95-2.95c.59-.59 1.55-.59 2.15 0 .59.59.59 1.55 0 2.15l-2.95 2.95c-.3.3-.68.44-1.07.44h-.01ZM49.516 67.42c-.39 0-.78-.15-1.07-.44-.59-.59-.59-1.55 0-2.15l2.95-2.95c.59-.59 1.55-.59 2.15 0 .59.59.59 1.55 0 2.15l-2.95 2.95c-.3.3-.68.44-1.07.44h-.01ZM63.669 65.189c-.39 0-.78-.15-1.07-.44l-36.59-36.59c-.59-.59-.59-1.55 0-2.15.59-.59 1.55-.59 2.15 0l36.58 36.58c.59.59.59 1.55 0 2.15-.3.3-.68.44-1.07.44v.01Z"/></g><defs><clipPath id="a"><path fill="#fff" d="M0 0h76.66v76.67H0z"/></clipPath></defs></svg>