<svg width="80" height="86" fill="none" xmlns="http://www.w3.org/2000/svg"><g clip-path="url(#a)" fill="#00B922"><path d="M73.47 85.54H6.27C2.81 85.54 0 82.73 0 79.27V53.51c0-4.93 4.01-8.94 8.94-8.94H70.8c4.93 0 8.94 4.01 8.94 8.94v25.76c0 3.46-2.81 6.27-6.27 6.27zM8.94 47.6c-3.26 0-5.9 2.65-5.9 5.9v25.76c0 1.78 1.45 3.24 3.24 3.24h67.2a3.24 3.24 0 0 0 3.24-3.24V53.5c0-3.26-2.65-5.9-5.9-5.9H8.94zM57.05 42.262c-.06 0-.12 0-.18-.01-.83-.1-1.43-.86-1.32-1.69 1.95-16.15 8.59-27.02 11.32-30.92-3.1-1.23-8.26-2.64-10.86-.68-5.55 4.21-11.49.76-17.07-3.58-4.86-3.78-11.56-3.02-15.59 1.78-2.6 3.1-5.84 3.88-8.31 3.94 9.52 13.97 10.12 28.92 10.14 29.59a1.52 1.52 0 1 1-3.04.1c0-.17-.69-16.77-11.57-30.66a1.518 1.518 0 0 1 1.66-2.38c.21.06 5.33 1.59 8.8-2.54 5.02-5.97 13.71-6.94 19.77-2.22 6.5 5.06 10.12 6.02 13.37 3.56.55-.42 5.65-3.92 15.72 1.12a1.52 1.52 0 0 1 .49 2.32c-.09.12-9.53 11.78-11.84 30.93a1.52 1.52 0 0 1-1.5 1.34h.01z"/><path d="M48.609 42.26h-.16c-.83-.09-1.44-.83-1.35-1.67.06-.58 1.53-14.27 6.06-22.44a1.515 1.515 0 1 1 2.65 1.47c-4.22 7.62-5.68 21.14-5.69 21.28-.08.78-.74 1.36-1.51 1.36zM69.409 76.642h-59.08a1.52 1.52 0 1 1 0-3.04h59.08a1.52 1.52 0 1 1 0 3.04z"/></g><defs><clipPath id="a"><path fill="#fff" d="M0 0h79.75v85.54H0z"/></clipPath></defs></svg>