<svg width="216" height="215" fill="none" xmlns="http://www.w3.org/2000/svg"><path d="M95.33 139.135c-5.48 0-11.2-.91-16.26-2.82-10.68-4.04-16.57-11.76-16.57-21.75 0-11.38 10.12-20.55 29.26-26.53 13.91-4.35 28-5.57 28.51-5.62 13.84-1.35 30.75.3 32.89 9.37 1.19 5.05-3.36 10.19-11.85 13.44-9.88 3.77-15.35 12.56-19.75 19.63-1.77 2.85-3.45 5.54-5.18 7.51-3.86 4.39-12.15 6.78-21.05 6.78v-.01zm33.77-54.13c-2.6 0-5.45.14-8.54.44h-.02c-.55.04-55 4.78-55 29.13 0 11.07 7.94 16.39 14.6 18.91 10.6 4.01 28.12 3.5 33.96-3.13 1.57-1.78 3.1-4.24 4.88-7.1 4.64-7.45 10.41-16.73 21.25-20.86 6.86-2.62 10.78-6.51 9.98-9.91-.92-3.91-7.88-7.48-21.11-7.48z" fill="#00B922"/><path d="M95.16 152.785c-5.97 0-11.98-.92-17.11-2.89-10.03-3.84-15.55-11.06-15.55-20.32v-15a1.52 1.52 0 1 1 3.04 0v15c0 10.15 7.39 15.11 13.6 17.49 13.23 5.07 33.49 2.67 40.15-4.74 3.08-3.43 4.65-6.83 6.17-10.12 2.64-5.72 5.14-11.13 14.77-14.81 6.17-2.36 10.04-5.79 10.08-8.96v-15.06a1.52 1.52 0 1 1 3.04 0v15.08c-.07 4.6-4.45 8.88-12.03 11.77-8.48 3.24-10.52 7.65-13.1 13.24-1.54 3.33-3.28 7.1-6.67 10.88-4.83 5.38-15.52 8.44-26.38 8.44h-.01z" fill="#00B922"/><path d="M116.81 109.545c-.35 0-.7-.12-.98-.36l-13.45-11.44a1.51 1.51 0 0 1-.17-2.14c.54-.64 1.5-.72 2.14-.17l13.45 11.44c.64.54.72 1.5.17 2.14-.3.35-.73.53-1.16.53zM127.171 101.825c-.35 0-.7-.12-.98-.36l-8.76-7.45a1.51 1.51 0 0 1-.17-2.14c.54-.64 1.5-.72 2.14-.17l8.76 7.45c.64.54.72 1.5.17 2.14-.3.35-.73.53-1.16.53zM110.081 121.055c-.35 0-.7-.12-.98-.36l-21.37-18.17a1.51 1.51 0 0 1-.17-2.14c.54-.64 1.5-.72 2.14-.17l21.37 18.17c.64.54.72 1.5.17 2.14-.3.35-.73.53-1.16.53zM99.401 128.495c-.35 0-.7-.12-.98-.36l-19.44-16.53a1.51 1.51 0 0 1-.17-2.14c.54-.64 1.5-.72 2.14-.17l19.44 16.53c.64.54.72 1.5.17 2.14-.3.35-.73.53-1.16.53z" fill="#00B922"/><path fill-rule="evenodd" clip-rule="evenodd" d="M116.27 80.234a32.876 32.876 0 0 0-4.563-3.07c-33.26-18.627-49.612-4.45-52.372-1.629.215 2.203 1.511 10.472 9.143 19.87a34.874 34.874 0 0 0-2.44 1.973C56.558 85.772 56.266 75.648 56.254 75c-.001-.367.119-.724.356-1.004l.006-.007c.27-.309 4.776-5.447 14.012-7.935 15.33-4.126 31.593 2.323 42.552 8.46a34.588 34.588 0 0 1 7.036 5.182c-1.239.14-2.558.321-3.945.537zm24.383 44.535c3.303 3.575 5.589 7.442 6.944 10.099l2.891-11.813c.067-.284.218-.532.411-.733l7.467-7.234a43.824 43.824 0 0 1-6.586.375 59.952 59.952 0 0 0 2.42-3.068 41.956 41.956 0 0 0 4.108-.377 2.836 2.836 0 0 1 3.009 1.605c.569 1.155.332 2.478-.592 3.371l-7.415 7.182-2.86 11.717a2.883 2.883 0 0 1-2.507 2.206 2.884 2.884 0 0 1-2.934-1.597c-1.264-2.528-3.494-6.379-6.759-9.864l2.403-1.869z" fill="#00B922"/><path d="M73.682 75.765c-.078-.043-.164-.115-.238-.167a1.079 1.079 0 0 1-.209-.22c-.064-.07-.113-.167-.159-.25a.863.863 0 0 1-.107-.278c-.108-.381-.057-.8.139-1.149.048-.087.115-.164.172-.247.067-.077.133-.155.22-.209a.818.818 0 0 1 .25-.158 1.02 1.02 0 0 1 .27-.113c.095-.027.194-.04.293-.053a2.15 2.15 0 0 1 .295.005c.102.022.2.031.297.063.19.071.364.17.515.288a1.597 1.597 0 0 1 .368.47c.048.096.089.187.107.278.018.09.04.194.053.293.005.094.01.189-.004.295-.018.094-.036.187-.064.297a1.522 1.522 0 0 1-1.32 1.048c-.094.005-.189.01-.296-.004a1.233 1.233 0 0 1-.296-.063 1.355 1.355 0 0 1-.268-.116l-.018-.01zM73.42 94.45c-.279-.157-.509-.4-.647-.707-.34-.764.002-1.661.774-1.996 6.264-2.773 9.768-7.7 10.41-14.618.492-5.34-.971-9.93-.978-9.98a1.516 1.516 0 0 1 .976-1.906 1.526 1.526 0 0 1 1.911.967c.066.209 6.464 20.548-11.079 28.317a1.51 1.51 0 0 1-1.363-.064l-.003-.014zM66.684 82.493a1.48 1.48 0 0 1-.635-.688c-2.098-4.522-8.383-5.313-8.45-5.317a1.52 1.52 0 0 1-1.326-1.683 1.515 1.515 0 0 1 1.674-1.331c.325.033 8.035.981 10.857 7.054a1.519 1.519 0 0 1-2.12 1.965zM102.037 72.435a1.426 1.426 0 0 1-.414-.346 1.524 1.524 0 0 1 .163-2.133c.368-.31 9.155-7.63 23.694.26l.061.035a5.108 5.108 0 0 1 2.636 4.4c.038 1.877-.905 3.56-2.522 4.524-.714.436-1.686.247-2.131-.472-.437-.714-.26-1.624.459-2.07l.134-.073a2.09 2.09 0 0 0 1.027-1.855 2.065 2.065 0 0 0-1.11-1.825c-12.613-6.846-19.967-.878-20.278-.629-.499.42-1.186.46-1.718.161l-.001.023z" fill="#00B922"/></svg>