<svg xmlns="http://www.w3.org/2000/svg" width="62" height="85" fill="none"><g fill="#333" clip-path="url(#a)"><path d="M31.01 84.79c-8.16 0-15.83-3.18-21.6-8.95C-.8 65.63-2.44 49.48 5.51 37.43L29.75.68c.28-.43.76-.68 1.27-.68s.99.26 1.27.68l24.23 36.75c7.95 12.05 6.3 28.2-3.9 38.41-5.77 5.77-13.44 8.95-21.6 8.95h-.01Zm0-80.52L8.05 39.1C.89 49.95 2.37 64.5 11.56 73.69c5.19 5.2 12.1 8.06 19.45 8.06s14.26-2.86 19.45-8.06c9.19-9.19 10.67-23.74 3.51-34.59L31.01 4.27Z"/><path d="M31.01 77.42c-6.21 0-12.04-2.42-16.43-6.81a23.317 23.317 0 0 1-5.78-9.58c-.25-.8.2-1.65 1-1.9.8-.24 1.65.2 1.9 1 .96 3.13 2.7 6.01 5.02 8.33 3.81 3.81 8.89 5.92 14.28 5.92a1.52 1.52 0 1 1 0 3.04h.01Z"/></g><defs><clipPath id="a"><path fill="#fff" d="M.5 0h61.03v84.79H.5z"/></clipPath></defs></svg>