<svg width="88" height="88" fill="none" xmlns="http://www.w3.org/2000/svg"><g clip-path="url(#a)" fill="#00B922"><path d="M64.359 71.48c-.59 0-1.15-.34-1.39-.92-.33-.77.02-1.66.79-2a34.159 34.159 0 0 0 20.63-31.38c0-18.84-15.32-34.16-34.16-34.16-14.14 0-26.63 8.5-31.8 21.66-.31.78-1.19 1.16-1.97.86a1.528 1.528 0 0 1-.86-1.97C21.229 9.26 34.819 0 50.229 0c20.51 0 37.2 16.69 37.2 37.2 0 14.86-8.82 28.27-22.46 34.16-.2.08-.4.12-.6.12h-.01z"/><path d="M56.17 58.96H44.28c-.84 0-1.52-.68-1.52-1.52V44.65H29.97c-.84 0-1.52-.68-1.52-1.52V31.24c0-.84.68-1.52 1.52-1.52h12.79V16.93c0-.84.68-1.52 1.52-1.52h11.89c.84 0 1.52.68 1.52 1.52v12.79h12.79c.84 0 1.52.68 1.52 1.52v11.89c0 .84-.68 1.52-1.52 1.52H57.69v12.79c0 .84-.68 1.52-1.52 1.52zM45.8 55.93h8.85V43.14c0-.84.68-1.52 1.52-1.52h12.79v-8.85H56.17c-.84 0-1.52-.68-1.52-1.52V18.46H45.8v12.79c0 .84-.68 1.52-1.52 1.52H31.49v8.85h12.79c.84 0 1.52.68 1.52 1.52v12.79z"/><path d="M44.019 87.029c-4.83 0-9.65-1.34-13.95-4.03-10.45-6.53-19.44-15.5-25.98-25.94l-.1-.15c-5.3-8.46-5.32-19.4-.05-27.88a7.353 7.353 0 0 1 6.01-3.47 7.317 7.317 0 0 1 6.22 3.08l4.05 5.67c2.58 3.62 2.48 8.59-.25 12.1l-1.52 1.95c-1.68 2.16-1.74 5.23-.15 7.46 3.55 4.97 7.87 9.29 12.84 12.84 2.23 1.59 5.3 1.53 7.46-.15l1.95-1.52c3.51-2.73 8.49-2.83 12.1-.25l7.07 5.05a6.21 6.21 0 0 1-.33 10.33l-1.48.92c-4.29 2.66-9.09 3.99-13.9 3.99h.01zm-33.83-58.45h-.15c-1.47.05-2.76.79-3.53 2.04-4.66 7.5-4.64 17.19.05 24.67l.1.15c6.3 10.06 14.95 18.7 25.01 24.98 7.59 4.74 17.04 4.75 24.64.03l1.48-.92a3.14 3.14 0 0 0 1.5-2.59c.03-1.08-.45-2.06-1.33-2.69l-7.07-5.05c-2.53-1.81-6.02-1.74-8.48.17l-1.95 1.52c-3.21 2.5-7.77 2.59-11.08.23-5.25-3.74-9.8-8.3-13.55-13.55-2.36-3.31-2.27-7.87.23-11.09l1.52-1.95c1.91-2.46 1.98-5.94.17-8.48l-4.05-5.67a4.239 4.239 0 0 0-3.51-1.81v.01z"/></g><defs><clipPath id="a"><path fill="#fff" d="M0 0h87.42v87.03H0z"/></clipPath></defs></svg>